<mxfile host="app.diagrams.net" agent="Mozilla/5.0 (X11; Linux x86_64) AppleWebKit/537.36 (KHTML, like Gecko) Chrome/131.0.0.0 Safari/537.36" version="26.1.0">
  <diagram name="Page-1" id="ml15QdqDFJFWa8JJbJPc">
    <mxGraphModel dx="1368" dy="788" grid="0" gridSize="10" guides="1" tooltips="1" connect="1" arrows="1" fold="1" page="1" pageScale="1" pageWidth="850" pageHeight="1100" math="0" shadow="0">
      <root>
        <mxCell id="0" />
        <mxCell id="1" parent="0" />
        <mxCell id="RWjoFBA7LIFzXZIVMxSM-1" value="" style="shape=image;verticalLabelPosition=bottom;labelBackgroundColor=default;verticalAlign=top;aspect=fixed;imageAspect=0;image=data:image/png,iVBORw0KGgoAAAANSUhEUgAABAAAAAQACAQAAADVFOMIAAAABGdBTUEAALGPC/xhBQAAACBjSFJNAAB6JgAAgIQAAPoAAACA6AAAdTAAAOpgAAA6mAAAF3CculE8AAAAAmJLR0QA/4ePzL8AAAAHdElNRQfoBhABMCubojT0AACAAElEQVR42u2dd5wUVdaGn4kMOUfJYCBKUkSCiGAEAwpmzKi7xl13Ma7omtdPxbRmV8yCETOCCRQDQYkKiAKSc4Zhpr4/5nbRk7t7OlTVfZ/z2x11Znq63rp9z1s3nJuGEMK/ZFCLWtSiNrWoSiVqkEktsqhGZXLC/q2ANGq5v1mNLPNPuWxz/+smHPNP28hlE7lsZRc7zb/tZQu72MEmNrKJTWwiT7dACL+SJgmE8Dw1aUQDGtCIBtQ2Kb8gqqf4nW0NMwOb2MhaVrKGtaxki26bEDIAQohIyaIxzWlGQ5PuC/6/kg+vZFeYGVjDapaxjBXs1S0WQgZACJFGI5rTlKa0MP/fiPQAX28eq/iD5SxnKctYzjJWuVMOQggZACECTA6taUtb2tCWtjQl23I99rCMRSxmEYtYxG/sVhMRQgZAiGBQhf3dhN+GZvrMlUE+y1nkGoKF7JQkQsgACOEnqtGO9iZaBnpQP7F24HfmMo95zGM+2yWIEDIAQniRGrSjA+3oyEG00Ccrzjj8wTzmMp+5zGerBBFCBkCI1FKbDnSnO905SE/6SWMl05nOdH5kpcQQQgZAiOR9alrTjS50pSuNJEeKrcBMZjGTGSzRfgIhZACESAwtOIyedKMLNSWG59jMLKbzHdNYKjGEkAEQouJUpweH0ZOeetr3zajAd3zHNH4MK3EshJABECJCWtOH7nTnULdmvvAXefzCdKYzhZnkSw4hZACEKItsDqEffelNDYkRGLYwha/5ih/IlRhCyAAIEU4WnRlIH/op8QeYHcxkCp8xVSWGhJABELZTlV70oTd9yJEY1rCXn/iMqXzNJokhZACEsO2J/zAGMYgeZEoMi43A90xkIt/plEIhAyBE8GnNQAYyiFqSQhi28y2f8RkzVEtAyAAIETzqcSQDOYYWkkKUwiq+5jPeZ4WkEDIAQvifDA5jMMdwsEr1iojIZyaf8D7fafOgkAEQwp9UZQCDOVEFfERMrGcy7/OeFgoKGQAh/ENrBjKEo8mWFKKC5DGNCUxgnqQQMgBCeJcs+jCYwRwgKUSc+YX3+YCvtV9AyAAI4S1yGMRgTqaBpBAJZCPvM4EP2S4phAyAEKmmMgMZxkmq4CeSxg4mM4632SophAyAEKmgFoMYwilUkxQiBeziM8bxLpslhZABECJZ1ONkTmWAFvmJlLOHz3iTd1kvKYQMgBCJpDKDGcExOqJXeIo8PudFTQoIGQAhEkEGRzJCA/7Cw+ziM8byLnskhZABECIepHM4wzhDK/yFL9jI+4xlsuoIChkAISpCF87mdJpJCOEzlvIar/CThBAyAEJESwPO4QI6SgjhY2bzHC+zVkIIGQAhIiGDIxnJyVroJwJBHp/zFO+QKymEDIAQpXMQ53M+DSWECBireIPnNCUgZACEKE4tzuACDpUQIsBM43+8ptJBQgZAiBD9uYSh5EgIYQE7eZOn+UpCCBkAYTc1OIMr6CQhhGX8ynM8zQYJIWQAhI10ZyRnU1VCCEvZxQTGMFVCCBkAYQ9VOJPL6CEhhOAHnuA1dkgIIQMggs4BXMjF1JUQQrhs4TUeZbaEEDIAIpikM4Sr6a9WJ0QJOHzBGCaohLCQARDBojpnci0HSQghyuQ3nuIpNkoIIQMggkBrRjKS2hJCiIjYyqs8yAIJIWQAhJ8ZwNUMJl1CCBEV+bzHGL6QEEIGQPiPSpzO3+ksIYSImZ94nBfZKSGEDIDwC3X4K1fQQEIIUWFW8wiPa1WAkAEQ3qcRl3ENNSWEEHFjG89xP8skhJABEF6lLVcyUjX9hUgAe3ide5gnIYQMgPAavRjFEC33EyKB5PMu9/KdhBAyAMIr9GEUgyWDEElhKvfyPo6EEDIAIpWkM5wbtNZfiCTzE3cxXlUDhQyASFXyP5XbaCchhEgJ87iXl8mTEEIGQCQ7+d+u0r5CpJjfuJfn2CshhAyASAaZnMVNHCAhhPAEC7iTVzUSIGQAROKf/O9Q8hfCYyzhHo0ECBkAkSiyOJcbaSMhhPAki7iDl2UChAyAiHdLOY072V9CCOFpfuduntHuACEDIOLFQO6lm2QQwhfM4XbGSQYhAyAqSi/uor9kEMJXfMsNfCkZRFmocKsoiy58wDdK/0L40Lh/wQSV6BIaARCx0JIbuIgMCSGEb3EYz00slBBCBkBEShNu5UIyJYQQvieXZ7mdlRJCFEXPd6IoVfgbb3C4poeECEgv34PLqcF37JEYQgZAlEY65/Iep1BJUggRILLow3lsY5bOEBT70BSA2Mcg7teiISECzCyuY5JkEKEnPiEADuINPlX6FyLQdOEzJtJJQggZAFFAPcYwm2ESQggLGMgMnqShhBBaA2A7lRnFOPrJCgph0YNfd0YCP+rcALvRGgC7GcIYWkkGIaxkMTeoZLAMgLCR/XmI4yWDEFYziauYJxnsRFMAdlKdOxjLQRJCCMtpzcVUZRq5kkIjAMIGhvAozSWDEMKwght4UTUCZABEsDmYR+grGYQQRfiKK/lZMtiE1n7bRG3GMF3pXwhRAv2YyVjqSQh70BoAW0hjBBMYIMsnhCi1lziY81mlcQB7briwgbY8ziDJIISIgC+5jAWSQSMAwv9k8Q/e4EAJIYSIiJZcSlW+Jk9SaARA+Jn+PKHkL4SImvlcxleSIchoRjjI1OZJJiv9CyFioB1fMJb6EiK4aAogqBQs+uunMR4hRMy9yMFcxCZmSIqg3mARRA7gKY6QDEKIODCZS1kkGTQCILxPOpfwFvtLCCFEXGjFJexlmioFagRAeJsOPMehkkEIEWemcSHzJYNGAIQ3yeQGXqaFhBBCxJ2mXEQe08iXFBoBEF6jE8/RQzIIIRLIz1ygRYEaARBeIot/8CrNJIQQIqE05CIVCdIIgPAOB/Mc3SSDECJJzOFCfpAMGgEQqSWb23mB/SSEECJpNOACKvG11gNoBECkjva8qGd/IURKmM25/CQZNAIgUmHeRvImzSWEECIlNOR89vKt6gNoBEAklxb8j/6SQQiRYiZzAUslg0YARLIYxvu0kwxCiJTTiovYwHQJoREAkXjq8ySnSAYhhId4k8tYJxlkAEQiOYbnaCIZhBAeYzWXMEEy+Il0SeAjqvAkHyv9CyE8SEPe5XEqSwiNAIj4057X6CQZhBAeZj5n8LNk8AdaBOgXRvAuTSWDEMLT1OcCtvGdhNAIgIgPdXiWkyWDEMInvMklbJQMMgCiovTkVVpJBiGEj1jG2XwtGbyNpgC8TTpX8Sp1JYQQwlfU5Fwy+FpVAjUCIGKjKS/TTzIIIXzKF5zDn5LBu0+YwqucyCylfyGEj+nPLAZLBq+iKQCv3pdbeZyqEkII4WuqcCZ1mKSDg72IpgC8SANeZqBkEEIEhK84g5WSQQZAlEd/XqWRZBBCBIiVnMFXksFbaArAa4bsal6kpoQQQgSK6owgna+0K0AjAKJkavA8QyWDECKgvM8IFQiSARDF6cY4WksGIUSAWcowvpcM3kBTAF5hBG/RQDIIIQJNTUawVWcFaARAhMjhSUZIBiGEJTzP5eyWDDIAYj/e4lDJIISwiBmcwlLJkFpUCTDV9GG60r8QwjK6MY3DJYMMgM2MZBINJYMQwjoa8zmXSIZUokWAqSOTB7lDd0AIYW3+GUITPiVPUqQGrQFIFfV5g/6SQQhhOVM5jVWSQQbAHrrxNs0lgxBC8CdDVRsgFWgNQCo4n6lK/0IIAcB+fMm5kiH5aAY62aQxmgfJlBBCCGHI5BTq8KlOCkh2OhLJpCovcbJkEEKIYrzFueyQDDIAwaQp79FVMgghRIn8yEmskAwyAMHjYCbQTDIIIUSprOBEpkuG5KBFgMliKN8o/QshRJk04UtNkyYLLQJMDlfzLNmSQQghyiGb00njCwkhAxCM5vwM12uyRQghIiKN/jTnY1UITLzQIrHU5W36SgYhhIiKzzmNDZJBBsC/tOJDDpIMQggRNfM5jj8kQ+LQIsBE0pmvlf6FECIm2jGNbpJBBsCPHMtU9pMMQggRI434nIGSIVFoEWCiGMGrVJYMQghRASpxFiuZISFkAPzDKB6VtkIIUWHSGaJtgTIA/tH0cW37E0KIOJFGf5rxIfmSIt7CivhShdcYIhmEb5jLGVRyzWsNII1aZFGNyuRQjSxqkU0tN2pLMpES3uUsHRUkA+Bl6jOBnpJB+IgZdI/yN0JWoDENqE8T6tOAxtQnR2KKhPItQ1gvGWQAvElzPuVAySACbgBKowZNaUZTmtGcpjSlBVUkr4grCziaZZJBBsB7HMinNJcMwloDUJy6NKMNbWlDW9rSVP2NqDB/cDS/SgYZAG/RjY+pLxmEDECp5NCatrTlQNrTnjqSXsTEao7hJ8kgA+Ad+vEeNSWDkAGImNp0oD0daE9HGuk2iCjYxBCmSAYZAG9wAuNU9EfIAMRMI7rQla50pY36JBEBOziNjySDDEDqOZMXyJIMQgYgDtSgizEDHcjUzRGlsocRvC4ZZABSy+U8qhMVhAxA3KlKd3pyGD11ooYokTz+wlOSQQYgdYziHokgZAASSjNjBHqo0oAohMPtjJYMMgCp4T9cJxGEDECSyORgBtKHPtTSbROGu7lRIsgAJF+5B7hGMggZgBQYge705QgZAQHAA1yHIxlkAJKp22NcLhmEDEAKSacLgxhEb00NWM4jXC0LIAOQPNUe5S+SQcgAeIIq9GUQg+ik/sxanuYynRUoA5AMMniG8yWDkAHwGI0YyDEcSz3dVAt5hfPYKxlkABKd/p9jhGQQMgAeJZ2uDGEw3dS7WcZrnCsLIAOQ2PT/AmdLBiED4HlaMpghHEEl3WJrGMfZ5EoGGYDEkM2rDJUMQgbAN1TjGE7lBGroRlvB+5zGbskgAxB/KjGewZJByAD48LPblyGcQQPd7sAzgWGyADIA8SaL8ZwoGYQMgI8/w/05lZNpqJseaD7mZFkAGYD4dh2vc4pkEDIAvieDfpzFqdTWrQ8sb3G6lgPKAMSLTF5muGQQMgCBoRJHM4yhVFUDCCSvczZ5kqE8dI5dJE8Mz5v077BJcggRAHYzgRHUZzjva914gNhiygGdzitkSA4ZgIqSxn85x6T/KziUPyWJEAFhJ+MYQjP+xmyJEQBW04uRpijwcJ5VfhMVT/8ODg75XAHA/iw3/0WhCEJM18ccgA7cw1q1Bx/HKtoDcJX7X2QBRIXS/6NuUxrl/ldZAIUMQDCpxDAmkKtW4eP0D3CN+1+f0jo3ESv3us2o8InTsgAKGYDg0oyb+V0tw7fpH+Dv7nceUoMWsXCf24RuKfY9WQCFDECQSWcgb2gswKfpH2C0+9271ZxFtNzsNp/bSvy+LIBCBiDoNGEUy9RGfJj+Ae50f+J6NWURDZe7Tef/Sv0ZWQCFDEDwyWYYE8lXS/FZ+ge4x13CfakasoiUs8gzDefhMn9OFkAhA2AHHXiSHWotvkr/kMbj5ufyOF2NWETC0ew2jebFcjeRyAIoZABsoSZX84dajG/Sf4EFeN787B6OVxMW5dGLbabBvEdmBD8vC6CQAbCHDIYwRa3GJ+kfIIv3zc/voJ8acGFUJqEwB/OBqQ7+OcMjOk5iIUeqOqAQlpDHBPpwOG+o0nyKWc0A5kXwc7kM4ysAKjOBbhJOBqD0p/lPzBlhsxjKrgh/SxZACLv4ltM5gP+yU1J4PP0D7GSIGeeqwcccJPFkAEqiKRPNSeELOTaqY39kAYSwjd/4Cy24jQ2SwtPpH2ALxzIfgPp8SgsJKANQlPp8ZhrGHwxgdZS/LQsghH2sZTQtuIblksLD6R9gHceyDIBmfERdiSgDEE5l3uVA85E+JqaPsyyAEDayjTG04WIWSgrPpn+ApRxlHuza8aFZ6SUDIAmADF6hFwCbOZZfYnwVWQAh7GQPz9KOETH3HSLR6b+ghz6ajQAcymsR7fGSAbCCxzkZgF2cyIwKvI4sgBC2kseLtGc4CySFJ9M/wM+cym4ABjNGcgqAW9xaUcPi8GqqC6BQHQC7H6qGMFPtKmX7/svjdLfOq04IEJztVvm+Jk6vKAugkAGw3QScwVy1LQ+mf4Dr3BMCzlNTtZsBbtnf/8TxVWUBFDIAtpPBeSxR+/Jc+gd40C0PfLQaqr10Z6tpCK/FeTWELIBCBkBkMZIVamMeS/+QzjjzylvoqmZqJ61YaRrBF1SK+6vLAihkAARUZRQb1c48lP4BsvnMvPoKmwsD2bsLoC4f0QiAOZxsVobGE+0IEELAdu6lDfeqbHCMVHTlf8nsYbh51cZ8aArAywBYNDQ3zhT+WcEJUZX9lQUQQkTHBq5nf/5HvqTwRPovuCdHm9qA7XmHbBkAm3iMIwHYwvEsTdhfkQUQQhTwJxfQg8kSwhPpv+COHG8e/vrxhMS2hxvcNaADEv63tBZAoTUAYh8Dma1Wl7K5/6IcTa75a9epadrBULcQxGVJ+XuyAAoZALGPTEaySi3PA+kf4CK3ENzJaprBpxvbErDzXxZAIQMgIqcm97k1SBSpS/8AD5m/uYND1DCDTROWmZv9ARlJ/LuyAAoZAFGYtryv9pfy9A/pvGv+7p80tasJ2rUIsDLvmBs8i9PJS+Jf1nJAIURhFjGYk/lNQhQhsUv/ipPPOfxsHhDfteug4HSrrvUVM8SzkhPZluS/LgsghCjKu7TjmqT3Rkr/hdnK8aZ37sZYnZEbTO5zZ3p6pugdaCJAoSkAUZz9GKuWmILB/3C6s928h7vUIIPH+e5az1NT+C5kARQyAKIkBvKr0n/K0j/AcPdk2HPVHINFN3aYW3tDit+JLIBCBkCURBaj2KX0n0JuMe9kJ4eqOQaHRm7SHeuBdyMLoJABECXTji+U/lNGGi+Zd7OUhmqMQfHVX5qbOoPKnnhHsgAKGQBRWhIawRql/xSRw/fmHU214XwAG9Y7Pko/AFZzokdO5NKOACFEyTiM5UCewrHomlOx8r9kdnEqawA4nAfVGP3P5cbP7eEIT70vjQIoNAIgSucoftPTf0ro7dZovETN0N8c7t7KSz333mQBFDIAonSqcI97bonSfzK5wn1s7Ktm6F+a8Ke5kc978v3JAihkAERZ9A345kAvpn+Ap837W2lbceDgsG85xzdU8uh7lAVQyACIsqjMPexV+k8yWXxt3uO3ns0eokxCtbWW08jD71IWQCEDIMrmMOYq/SeZ/Vhh3uczaoD+46++KekgC6CQARDljWf+J2DrAbyd/gF6uWWZLlYD9BeHuLfuIh+8W1kAhQyAKI/DWaj0n1TOcx8ju6n5+Yfa7gaax3zyjmUBFDIAojxq8LzSf1J5xrzj36mj5ucP0njH3LTvfbR8QxZAIQMgyud4d25a6T8ZUy/Tzbt+jzQ1Pj9wk7lhG2jlq/ctC6CQARDl08B9xFH6Tzxt2Gje+T/U9LxPf7NlJp+TfffeZQEUMgAiEka6p9cr/SeaIeaY4FxTVF54lobu8Nidvnz/sgAKGQARCQcxU+k/SfzHff+N1fC8S6Z77t/nZPj0GmQBFDIAIhJyeEzpP0mZ5SvfZxYLuC8QPk0WQCEDICLjJNYp/SeBRj4fW7aAEwMzUyMLoJABEJHR1B33VPpPJAPM6rI8jlej8+LHYF2A1mrKAihkAERkZDDa46cF+D/9w779ZWtookbntY9AyAW/G5DdmrIAChkAESn9Wan0n2DS+cBc0STS1eS8xGhzY5ZRNzDXJAugkAEQkbIfU5T+E0w994D5G9XgvENfd3bmyEBdlyyAQgZAREoW/2fWQSn9J4ojTK7J5XA1OG9Qm99NY/tX4K5NFkAhAyAi50S3bp3Sf2K401zbUp0O4A3eNjfkq0Du0JQFUMgAiMhpyyyl/wSS6U61jFdjSz1/NTdjAy0CeoWyAAoZABE5lXlB6T+BNGO9ucZL1NhSSwd2mFtxcoCvUhZAIQMgomEke5T+E8ap5ip30llNLXXk8JO5EY8E/EplARQyACIa+rJK6T9hPGWudA6V1dRSxZPmJswiJ/DXKgugkAEQ0dAyRccFBT/9QxXmmqt9VA0tNRxrtrxso50V1ysLoJABENGNkb6g9J8gQtPP+SoNnArquwNcF1tzzbIAChkAER0jyVX6Twh/Mdf8Z4DKz/mGcW7pX5uQBVDIAIjoOI7NSv8JII33zXW/pUaWXM43wq+hoWVXLgugkAEQ0dGRJUr/CaABq821n6NGljyassHIfqqFVy8LoJABENFRj6+U/hPAyebqN9FcjSw5pPO5Ef0ZSxWQBVDIAIjoyOE1pf8EMNatRKsTApPCdUbw36hhrQayAAoZABEdaYxK0GFB9qZ/qOmeRXONmljiac9OHBzyOMJqHWQBFDIAIlqGu7VTlf7jRV/ycHDYRSc1sMSSxQ+m0d1rvRayAAoZABEth7FW6T/OPGC0mEG2GlgiucsI/TOVJIYsgEIGQERNO3fQWuk/PuQwx+jxb4mROLqaAy52cbDEkAVQyACImGjMDKX/OOem3Tg45NJDYiSGbH42ze56iSELoJABEDFTg8+U/uPKjUaVWWRJjERwuxH4OzIkhiyAQgZAVIBMnlH6j6ue3xtlbpUY8edgM/y/m44SQxZAIQMgKkgao5X+40gndxqgq8SIt7v60TS8mySGLIBCBkDEhatjqgyg9F8yo93dAJoGiCu3aH5FFkAhAyDizjlRnxao9F/6g+p0rVOLP+1M8Z9cuksMWQCFDICII0NM/6r0X3G6uDvVOkiM+JDhLq64TWLIAihkAEScGcAWpf84EapVM02L1ePDP42g88iRGLIAChkAEXd6RFQfUOm/fCq5RYGulRgV50BTuzqXQySGLIBCBkAkhHYsU/qPC4exFweH7bSVGBUjjUmm8d0tMWQBFDIAImG04jel/7jwf0azL0iTGBXhAiPkAg3/ywIoZABEQmnGr0r/caAKC41u50qM2KnLGhwc8hkgMWQBFDIAIsE0cmewlf4rwhGmvsJa6kmMWHnBNL9nJIUsgEIGQCSBBu6ZK0r/FWGsUe9pSVExD7VOHkoWQCEDIJJEfX5S+o/D+PVaM359pMSInkrMMw1whMSIkXNjKvOpkAEQdnOIKWfjkM95kiNGLnJXsFWSGNEyWusoK0hftim9KWQARIXGDrfRR5LERBqTdYJNrE1wpymoeJDEiInDIq7tpZABEKJ4+t/jWoC+kiUmDmSXyWMHSoxonNNnpun9S2LERFc2KLUpZABEzOl/FT3do202qQxbjPzbKPi5RrIj53wj2i/a/R8TXVivxKaQARAVSP/tgfrMNv++UQexxUQlFhgFz5IYkVHHXT3ZX2LEQGfWKa0pZABEBdM/QCM3ga2loySKgYGuprUkRiQ8bgR7TlLEQBtWKKkpZABEHNI/QEPmm/++mgMkUwy8ZPR7SFJEMnxdcJDCeu3+j4H9yqzmrVDIAIho0j9AUxab7/1BM0kVNQ3YaA600xhKOaTxhWlql0uMqKnHXCU0hQyAiGP6B2jlfn82dSRX1Fxt1PtaSwHL5hy3mWVKjCipzg9KZwoZABHn9A9wAKvNz3xHdUkWJZlubcXhEqOsFPanWf53hMSIkmw+UTJTyACIBKR/gEPcyiKTtDsravqaqqzLqCYxSuM+08BelBRRksF4pTKFDIBIUPoHONKUZ3N4RyO0UfO60e5OSVFaUyyomrSFJhIjKtL4nxKZQgZAJDD9A5xMrvn5ZzWbHSVNTWn23dpLUTIfmqZ1naSIkruVxhQyACLB6R/gHPLM79wuAaPkJqPcx156dvQKJ/M2AAvpxG61lSi4nMclgoiZXJa5/7SNnexiK3vZyC42ubGRtaxlj8QKVPr/nP0AWM0A5kX8e1e7+9lH6qz7qMhmtnn6H8wHMgDhVGYurQA4no/UUqJgCG9pPk4khQ2sZi2rWMUylrOMpaxkr2SxKv0D3M31AORxGu9Iyqh66/cAWExHdkmOfYQGR96SFFFxqI78VaQw9rKML3mWGxlON2rqA+mb9B/94H/4Y2NozdEOeknMqPjAKPdPjQDsoyELqQ7spD2/q41ETFum0kAyiAjYxF62sIft7HCn2A6lBrCF782/V6IKVcmmBpkx1i1fzVzmM5f5zGGdRA/g038BWUzgGADW0YdfJGkU2s+mErCZ/VkrA1DAk4wE4E5uVguJmPp8Q1vJIFy2sYK1rDX/vyFsDn9niT8/nW7AjFLOeatMLTfqUJ8GNDb/H9lO5jXMYiYzmcVC8nVzApT+AarzJV0B+I3DWS1ZI+Z+/g7AY1whAwDQjp/JBNawP1vUPiKkKl/qgE6ryWMZi1nKUndGfluUr1C2ASidajSnGU1pRnOa05ZmpJdjTH7iB75jmsb3ApL+AZrwDS0A+J7+pVhMUZxaLKQesJcuzJUc8JGZFblUUkRMOm9pBtrCWMFnPMLVnMCBZFe4FU2P0zbAShzEYK7hMSaxqsz3v4p3uZF+qiSXsvRfkbn/4o9u682rjS/HAopwrjKqvScpYIARY57WskfBvUqG1sRGJvMQI+lD7Ti3oukJqQNQh75cyhg+Z1Op17STr7idQVTVR9m36R+gj1sb8A7JGzFZ/GJUG2i7FBn8bKQ4Tu0iYs5XWrTgWX8C/2ao2RybGBJjAMJpzancwQeljgvsYSqj6SPz78v0DzDM1LjP51xJHDEnmzsxy/aRk4vd4yVEpPQ1JZMVwYsdTOEBhtM8KS0p8QZgHy05gwf5xn1iLBxbeJcrVCLVd+kf4DbzurvpL5kj5jOj2nk2i1CNFTg45NFNLSLiZ6o1SpSBiw28x3UcSlZS21IyDcC+4c/D+AcT2FiiDr/yAAOSrILSf8VI4yXz2uu0KyliupqSysttnga73TScZ9QeIqQ2C5QuAzW//xZXcXCKBgJTYQBCZNCVq3m7xHUCm3iDc2OsRCCSm/4BcvjGvP583bWIedFoZu3W9/1MFbttOv0vQjLdgSOFvyOXH7mHgSl+1k2lAdhnBLozioklTGvtZQpX00gfe4+nf4CG/G7+xidkSPKIaMYOHBy22trGnzZN5la1hQgZo9Tp+1jGEwyOsJSODQYgRHVO4kn+LMEGTOavqnfp6fQP0N4dy7lPokfIHUaxR+1smLlmtbO2AkXGeUqfvo653EMfT52i7iUDEKIDo5jiHjkbPhowkhrqBDya/gGOZ6/5W2dJ+AhN7yqzfLK1fRf/umksl6kdRERXM2Ck8N+BOZ9xOY092Ka8aAAKaMJfmeQmlH17JF5jiLYMejL9A/zTrfLQQ+JHxNVGsbG2XXhn4/F/i0M9MxtoyDKlUh+mfm/PYnvXABRQhxFMYHcRVdfzJF3UJXgu/QO8Yv7iH5q0iYhsfjP74A6268I/0mBRFGTxpdKpryKPyVwc98p9thmAkA0YyRfFJgWmcZmOH/ZY+ofK/Gj+6td6tIuIC4xe79h00X3MRf+sCtIR8YRSqq/m+kcntH6fbQaggP24minFCgq/QW91D55J/wAt3DolY3QbIiCDuUavXvZc9Bfmkgfr/kfASCVVn8RKxvhqKM9PBqCAg7iHlUVU/5GRWkjskfQPMMAs73YYoVsRAacatb605YKHmAueonsfAQdr8Z8PYjdvMth3y9P8ZwAAMjmRt9lTpKDSAz4ZdQl6+ge41h2h6arbUS5pTLPpaKB0ZprL7a97Xy61zSIRhXdjIddRz5ety58GoIAG/JNFRZZcvsURSv8pT/8AY93SzlqnUT6DjFo/eGqTcII421zsh7rvEXjDt5VgPV3P7y0G+fhD62cDUPAwcQxvF9ksOIPzLF5+5o30DznMMO/jXRuSWoWZZNQaGvQLzWKhOTxSg0Plc6OSrIfn+0ezn8/bl98NQAFNub3IccPL+JtHai3amf4B2rqVAf+mjrxceppDlecFvZDyRaZRvKZ7Xi793cU0Cm/FDEZSOQAtLBgGACCbYXxb6B5tZowniy/Zkf4BTjRJLZe+6szL5R1z784O8kVmstjM1unk7/JoaI5KVnirtM/4AHVnwTEABRzBW4UmBLbzME2V/lPGA+5oWWN16OXQyVS6mB/kMYBQ0YMXdb/LtUpfKN16LHYxNmDGNWgGAKAVYwrtm9nNWAsqrXsx/UMWU827mqgzAstlnNHqzKBeYAa/mKeog3S3y+EOJVxPxWbGBPDQ6iAaAID6jGZ9ERPQRuk/BTRyqzbcok69HDqYMYB5QS2PFzrN7mXd63I4otgxKIrUxQr+TvVAtrOgGgCAGvyj0NLA3TwW0IFo76Z/gCNNX5bHkerYy2G8uY9nBPP5f4FpCB11p8ukXgmnoitSE6sZFYjlfvYZAIBKjHSTY8GagHs8fz5DsNI/wG3uAUG1EdaOAZxrmsGrus9lksa7SryeiFWBTv42GACA7CImYAv3BGg8x/vpH9KZbN7jm+rey+Eto9Tw4D7/d9JdLpNrlHo9scv/r1QKfFuzwQAA5HAVq8Pu7p9cGIhnLD+kf4CmrDPv8zJ18GXS0YwBzA3aGECo/t/rusdl0omdSr8pjq3cQw0rWpstBgCgKqPYGHaX53GC0n/SOMU9HcCyc++jJlT7dViwnv/nm/p/nXWHy+yk5isBp/hQnydpYE17s8kAANThnkJbBCf6uD/yU/oH+K97WHYVdfRl0MWUT5oTpDGAM83NH6f7WybPKQWnMPJ4NoBb/WQACrMfz5lh1oIqdY/4cmma39I/VOZn847/q46+TEI1AU8LygWlmfP/8jX8UyYnKQmnMD6ji3UtzkYDANCeD8Lu/Hqu9lmZGv+l/wLVt5t3PVidfRl0NWMAs4JyjNIJ5ra/pXtbBg1ZozScopgfrBk3GYAIGOg+kRZocLjSf8K5zF1iWw9ROu8ZnY4OxuV8bS7nMN3ZCG66Irmxnr+QaWmbs9kAQCZXhi0LzOMpain9J5gJ5r2/rQ6/DHoalSbpYmzhYqXilMz6j7VoyZ8MQHHqMCas6uZKRij9J5T6bnXGEQgrHpoDNpyREFqxRek46fGD9WNSMgAA3dwjaxwcJtBM6T+BhFY6baKFOv5SGWxUGu/3C2lnVtwGZkFDAkjXyX8pGPg/Xy1SBsD9BF7MBrdtbGSkJ9tGENI/wP/MVXylEwJLJbRwPo92/r6QF8zNPl33tFSuV0JOckxgPzU7GYBCNGRsWAv52nMnlgYl/UMNfjdX8jc1u1IJlc5/2s8X0ZTdODgstnaZVSRjJKr9l9yz/Yaq0ckAlMhglrrtZCejyVb6Twh9zLqLXQG4lkSRaWzSHg9PSZXLQ6oAXQ4ZfK+knMRFf49ZUuRXBiA2avKE2YVdMHHZQ+k/IdxvrudbTQOUylVGo/v8egF12GqOVK2su1kK/1BaTlos1InkMgAR0Jt5YZUC7yFL6T/u5LgaX6MGVwpVTGWYLb7YnloCt5pbfKPuZSkcWKgyuSJxkcs95KjByQBERBajzOSlg8M02ir9x52eZhpge0rVVQZNoMfzuX9JOOnubk9FYuM7HUItAxAlncMm5zZzjtJ/3Pk/c2VfaD9OKdRlm6lP4cOjyS8yt/d+3cdSuEapOUnP/llqbDIAUZPJKPa47WgcdZT+40oVfjVX9xc1tlIIraI7z39v/SccHPbSSnexRFqZFRKKRMYS+qipyQDEzKEsdNvSHxyh9B9XDjdVYrbRWk2tRFqaiZIZfnvjR5mm+4buYYmk8bnSc8LjDU0/yQBUkOo8GbaLZEzStgYGP/0DPGqu8RM1tFJ4yyh0hL/edqgAcG/dwRK5SOk5wbGJs9XMZADiwmmsd9vV9xyg9B83qrLIXOc5amYlcoQfz9Jta4Z2ftT9K5H6rFOKTmh87ufyGTIAnqM5X7ptawunKf3HjUGm7sLqFKyx8Ac/mNGnNv55yw+b5qtnsJIZqxSd0GV/o1VeRAYgzqRxddjWwCcTuLDUpvQf3hs+rUZWIucZfR7wyxuuzmZTdDVbd6/EQZ18pemExQK6q4nJACSEQ/jFbWeTqK/0HxfqshYHh3wV6iqRSqw0I081/fGG/2Ya8M26dyXezvlK0wmLd/zyIZEB8CXVeMNta8sTcJy0fekf9q2IWuDH/e5JYLTR52o/vNkMFpuDHhrqzpXAbUrTCYq9jFJJERmABJPG1W51gF1x7pLtTP+QxmRz3TepgZVAA3Ng3G9+mNo8xdzKZ3TfSuAAnf2XoFjLQDUvGYCkcASr3HY3Nm4nndia/gEOZJexVAeqeZXA86ZlnOT9txra395Zd60Ep6vd/4mJ6bRU85IBSBpN+dZtezPiUuzM5vQP8G9VBCiDLu7KE4/Tzixw+0z3rATOUqpOSDypuUMZgCSTwzNho08DlP4rSCUWGAVOVeMq48G6g7ffZmgD4Cm6Y8Wo5n7IFfGLXVyipiUDkBJGuKd55nKZ0n8FGWQ0+J0qalrFOM2o86CX32QVNpgNgDp+pTj3KF3HPZbRUw1LBiBldGOJ2xbHkK70XyHeNDrcpoZVjEzTSjZ62R5dbG7gaN2vYrQ1y1wU8YsvqKeGJQOQUuqH1Qh8KYapKKX/fTQzx9/uYn81rGLcbtrJBd59iz+Y4bCmulvF+EAJO+5H/eSoWckApJxsXnTb5NQoLanSf2H+5dbzEMXtUcHJgNO8+gYP8eOxBUniRCXsOMcY7fmXAfAIaW6pFoeFUTy9Kv0XJYffjCLHSYxihI7Y82it02fN2ztad6oIlfhVKTuu1f4vVaOSAfAU57vlgdbRR+k/Zk52jZR29hTleHfXkwepZeZvFsW4FCbI3KykHcfYoqcDGQAPchSb3J0pZyj9x8zHRpd/SooipJvxka1eLHh+tblt1+k+FaEhW5S24xa/01FNSgbAk3TiD9NK87hW6T9G9jfLpbeomHwxbjCt5q/ee2tzjPetr7tUhKeVtuMWP2mBqQyAh2nMj25bvUfpP0b+Y9R5TFIUob4xR3O99sb6m1v2ou5RETqbtZuKisfHVFeDkgHwNFXdpVoOj5W4UFXpvzxqmQOC93q97l0KeM20nd7eeluvePNteYBPlLjjFE/44SwsGQDryeBJt80+VWxFlNJ/JFxhNHpfUhThCKPMC95ybAUlMX/W/SnCcUrccYpHtO1PBsAnpHG/225fLVQVVek/MjKZa3QaJDGKtK35ODhso4Z33tTl5mZdq/tT5FlgtlJ3XOIeNSYZAF8xym27E9yCVUr/kROqnDJL435F+KdR5mLvvKXvcXDYowWARbhUqTsOka+dJTIAPuQf5mRUh8lUU/qPmoneL32bEhqaihNTvfKGOqgCYIlUY5XSdxzS/1VqSjIAvuQy8kwr/oquSv9R0tWo9ydVJUYhJpiWdJA33s7/mbczRHemELcqfVc49sr/ywD4mLPINS15j9J/1PzPaHa9pCjEUKPL3V54M5msNA1bRwCHU5fNSuAVjD0MU0OSAfA1w93Ur/QfLfuZxeUbqC0xwshmDQ4OK8lM/Zs5yTTt+3RfShwXUcQ++H+5mpEMgO8Z6a4F2MMhkiMqQiWB7pIUhXjQ6HJ86t/KO+atyNmG08R4V0VFQs9LMgB+Z9/SPweHL6gsSaKgNhtwcNjBfhIjjI6mPY1L9RtpYAa4vtU9KYTK/1b06V8WQAYgSOk/1KI/1Sl3UXGL0e1RSVHCZ3d3qnfe/d3cnpG6I4U+9rlK4hWa+79Ua6ZlAAKU/ldxiani7vC2F2ZufUNoL9Ue2kiMMEK1ElO8R2q2GaCpqTsSxutK4hVa+X8G2jUtAxCk9N8eGOo+FryoI9Oj4GovFr9NOXXYiYPDzFS+iW46AqgEurrDfYpYBv8vLqUDFTIA/k3/ACPcugDPqbB1xFTidx0NVMZjZgqPR7/PvIWjdTfCeE9pvALp/y/ldKJCBsCf6R/gr25LHyORIuYCryx58xTHp3qHRDrLcHBYrTmtQqMiev6PPUZF2JEKGQD/pX+Aa9y2PlpCRUiGOQAnj04SwyWT1Tg4/J6q0aT+8rIl8K7SeMwxOsrOVMgA+Cv9A/zbbe8qch0pZxnF3pAUYTxuVOmdmj8fOvW6p+6ESxc9/8ccD8XYoQoZAP+kf9g3dZrHKRIsqjGAfI0BhNE3lVsks1iHg8MiLWcJ420l8hjjiTLakSyADEBw0j+kuXVCtqs2YIScYxR7TVKEtaMlODisSUUZ/tB5zbfrPuj5v8LxQTnrSGQBZACCkv4LnmhDU4VraCvhIhoDWKB1AMW4x7Si45L/p18zf1pbM/bxllJ5TDGdanHsXIUMgLfTP0B1ZpqfnqejbiLiXKPXq5LC5WCjydhk/+GqbMPBYYbugUsHd5evIppYTtMEdLBCBsC76R+gCX+4JwSoPHA0YwAdJYZLQSm+bVRNjRv7h+6AyxtK5jHEZjonsJMVMgDeTP8FjwwbzW+9opVUETDCqPWSpHC5yWhyenL/7IdmTWYL3QG3C9irdB5D1f9BSehohQyA99I/wDFueeB/ScZyyWQhDg65tJQYhhZm3dm7yfyj9cwZgF9Kf5enlM5jiEuT2NkKGQBvpX+Ai9wamCMkZblcYtR6RFK4TDXnAtZJ3p+82NyGy6S+oaE5mkERTdyegg5XyAB4J/0D3G1+fzf9JGc5VOJPHBx20khiGELnAp6fvD/5sTmcoYHUN9yrdB51vBrzvKcsgAxAUNI/pPGieY3VES6HtZl/avt5sYfPgsnnCcn6g7XYjYPDZGlvqMEmJfQo4wuyU9zxChmA1Kd/gBymmNf5tkKfChuobhZObqC6xDB8jYPDLmok58+F1mL+VcobblBCjzKWUt8jna8MgAxA6ltgA3OwmsPjErYc7jJK/U1SGEIHTJ2ZnD/3jtmN2UTKA1CJFUrpUcXOuBRAlQWQAQhG+gfoyS7zehdK3HLM0g5TP0SjJQU0NTsBxifjj1Uz8k+V7oaRSulRxkUe7YRlAETqWt7lrj3uIYHL5L/JX/bmcb43J0skoRzQcA3AFCKNeUrpUR774+2OWAZApKbVPWte9Q/qSeQyaG2qJ8xW+STDKNNyhib+T71u/lRrqQ7AsUrpUcV3cS57KgsgAxCM9A85/Ghe+TMyJHQZjDM6HSUpjCUq0OPlRP+hHLbg4PCjNDd8rKQeRSRio5MsgAxAENI/QAvWmle/Q1KXQW+j0nuSwvATDg5byEnsnznJCH+DFAfgQB0AHEXsjbLwryyADIBN6R9goNnVnc+pkrsMvjMqHSgpAPiXaZcnJPbPjDV/5iApDsATSutRxHU+7phlAERyWtnN5m9sopUkL5WzjUoPSwoA2hs9nkvkH8lig1l8IQBqm0ORFZHEWwldsiMLIAMQhPQPabxp/s4UrQQoIxcVVE7YSk2JAcB8HBzWkZm4P3GkaZi3SW0ArldajzgWUC0gHbQMgNJ/YqnJYp0RWC43aT9aIe40eiTwRIkHzJ/oJrWBTJYqsUd87O+hAeukZQCU/hPHIea81Vx6SfxSqMN2HBx+1zgJAD1NC703cX/iVxwcVmj3JQCnKbFHHKMC2lHLACj9J4bR5i8uTlaFdx8SOoL9ZEkBpLMSB4e5ifoDBxq5n5TWAExSYo8wvkqiR5cFkAEIQovK5BvzV5/XLSiFDmYP1ieSAoDnTItpm5iX/7t5+ROlNHCQNgBGGBtpbkGHLQOg9B9fWrHZ/OUzdBtK4QuzGXB/SQGcatrLVYl5+c9xcNiRjHrDPuAhpfYII/ndlyyADEAQWtJ5KbLQ/uEMo9B9kgKoZg6USsiISE2zLOV96QxUZr1Se0SRmgFMWQAZgCC0oldSMInmJ7JZZTa/5UgM4FMcHHZTPXFe63KpDFyo1B5RpG4JkyyADID/W1Atfk/yMlq/cbfR52xJAVyduEOBXjQv3UIqAz8ouUcQuRxmeQcuA6D0XzGOIM881R2sm1ICzU3p5K8lBfsOBXo23i+cYQ6pmCWNgS5K7hFFqsuYyALIAPi/5dxl3sn3mgYokQ+NPp0kBZjD6VeTHt+X7aMzqsJ4Rsk9ooN/M1N+p2QBZAD83mqymKmad2VwolHnUUkB3GfUiHPhtdBMi+pSQTW2Kr1HMPzfRZ25DIDSfxzoQi4ODttpo9tTjAyzTmIzVSQGRySmXP8MHBzWxHtgwZdoAWAkcbs6dBkApf84cb95T5NUhbUEQkfhniMpyDQH9k2L54vWMwtRXpa+wBSl93LjF09ty5EFkAHwd0upwiLzvkboJhWjqVkI+JmkAMbj4LCXOvF7yTNN4ztf6rK/KgCWG3n0VccuA6D0H0eONP3OOhroRhXjM1MRsLWk4NL4bwUM1RhuJnXdNbmK0uMxde4yAEr/ceZ58+40Dlucs402t0oKWhot/hu/lyw49naetCVdRwCXGyuopQ5eBkDpP87UMVXvdBpLcXLYiIPDEq1SAxbj4PBbvF6unWl2D0lZjlOCLzdOVicvA6D0nwBC1Vj/SESpV5/zhNFmgKTgv0aLOE2IXGVe7gQpyxtK8OXE6+roZQCU/hPEBPM+H1ZXXISeRpkXJQVDjRaXxrPR7UlZVXfvUMectqQoLdbTUJ29DIDSf4JowiazxruL8lwR5pjTamtar0QtsytifDxeLNOcSv2lWhiXKcWXExeqw5cBUPpPIFeYd/u1KgIU4TqjzAWSgmnmGOk4FI/ua2S9WarypVJ8mfGNTzolWQAZAL+2hAy3MLDOvytMY/PcO1FScLtpIz099VI+p5kph6Qobff/ob65l7ZagMo05WC604uBDDTFZRYxkIEcRncOpimVlf49Tm9TEWClJmWLMNH0Q/tZr0QcH9u/xcFhg06iYpSSfJnxhDp/T5FNWwZyMXfwIp8yk6Vsj+g+bmcpM/mUF7mDixlIW7KV/j3Fy+Z936ucX4hQkfZrrFciiy04OHxV0Reqbo6heFOti1lK8mUu/6unBJByKtGVEfyHT1gWx/GqPJbyCfdxLl0CYwb8fPebmO59N23VLYdRgx3mHFLxnmkhFTwg6VjzIbnCekHbKcmXGX9REkgZ6XTkMsYy19j1RMYeZvMCI+no65Irfr/z/zTvfjwinDeNLgdYr8TfIquLUN6irbu4AYDOzLZc0Du5UZ+vUplPZ/b6MhF8bmYMVzPAd7Uus+hFPw7n8HK2Pu1mFWtZx3oTuexhO3A3bYDF3ABUJZss6lKXetSlLvVpXM7T/ia+4Vu+4ltyddeTTDZzzdN/P75W9+NyGuMAuNVDp5Gmhh78AMBtjK7Iy0wxw7u2F1hM4zc95ZcRx+pZMKk0ZyRvmQ26JcUGvuAZbuYc+rBfqTa/7F0A6exHH87lFp7lS3PIaEmxmTcZSXPd8aQyzFzDd9oOGEaOqZMw33olMowSkyvyIpVN4Zt3rJezl5J8GTHJ1/fWTwkhjZ78h7mlzNTP5WVGcXzEh3ZFtw2wGcczipeZU8rqgjn8h56eT0fBWfnxtbmOM5X3wwgdXNfNeiU+NIWRKsX+EgOMmH+zXsz/U5ovNfbS2ed31x9JoQOj+bXEVftTGMMw6kb9irHWAajOQEYzwTxjFI6ljKGPZ21AkBZ+Hma2A/5ekS4+cAwy9/cu65W4wSjRO/aXGG1eoof1YmoCoPR4OgD319uJYX/uKqEF7mUqt9CTzJhft6KFgDLpyS18YwqwhMci7vTgCvWg7ft4zVzN1cr7LhmswcHhV+uVONy0jgqsXZuMg8PWCnQxwaCH0nwZu8abBOIeezM55HAWn5snvX2xkucYTp0Kv3q8KgHW4XSedw+rDUU+kzmTHN3hhNGK3Tg4rKaaMr/LM+Yud7JchyxT9+PjWF8g27zAR9Y3qbuV6EuNuwNzl72WINrzEOuLpf5H6Re3JbnxLQWczhE8VswGrOchT6gZzMJPj6pQezFCR7aPtl6JSRV7gO9thLzBeiEXKNGXEhvj8BwqC1CcQXxU5Ll/Df/lyDjX40zEWQAZDOAJ1hYZC/iIgbqzCaAx23Bw2BTDCpDgPvkW7FiZbb0St5o2f0hsv36j+fXDLZexoxJ9qRE0c5j6RJHNML4vsrp/IiMSUqM/cYcBZTOEN4qsDfiJkSmaEAhy2efQ6OR9yvwuY40mB1muw5FGh+ti+/WPzTaCbMtlvFWJvpRYQdXA3e1UJosq/J0VhRRezr9plbC/l+jTAFtxB38WuZ5rk37cULBPfahlpol2BmQtTjw4SWPXAOSwEweHd2P55XRTZmSS9c3pZ6X6UiKYBaJTkzAqcVWR5P8NpyX4CK5kHAecyTBzOnko/uSKJG5cC/6hT6HtXvcr87uJr+CshB+tV+Jrsw4nhm25oYFv20sqtlWiL/X5Pyeg9zzZSSOLEYW2+eUxISlz5skwAAV0Z2yhCYGlXJ0UE2DDsc9Vzca37TRQ7je8ZtaetLRch9AE0YHR/+ol5lePt1zCa5XqrXr+T3biSGN4oeS/k0donaSrTJ4BKLDSj5vKogWxmNOU/uPCjVoHUIThRpErLdfhZKPDedH/6jPGQ9WzXMLJSvWlPP9XDvR9T07y6MaXhU7ae9IcUhNEAwDQjDGFTMA0eir9V5hqZgxgm8YAXEV2VWwPfEBoYD4Bj0f/q7NVTwmoyR4l+xLjqsDf+0QnkMY8GTYsvoextEnyFSbfAAC04MmwY4vzGEsjpf8KcpO51nuU+w0TcXDYRXXLdViCg8OMaH+tuumaXrRcvtOV6kuMlQF//k90EsnkOraG7ZN/PenJP3UGAOAAxhc6T/DqOJ83alf6hxpmL8AWain3A3CNuf+nWK5DwWqI3Gj3aw2wYJ43El5Usi8xrrPk/icmkXQutNN/Ov1SdHWpMwAARzAzTIUZcTy/zbb0D/vObVHZtgJaGz2esVyH0Bq2KPuYG3UMEJBRpKKZInTavD0Da/FOJpUZbSq4F6ykGJngrX7eNQCQzoiw0sF7uCcu+0psTP9Qx4worbZibC4S5hs90q1WIXSQ/T+j+7V3zYpku4sA9VGyLzH+bVUriGdC6c9CV8Vc7kvxIS6pNgAANXkwbCXE/IocXmpx+gd4yFz3Zcr9APynYoVwA0Ilsxzyzeh+bSUODlMsb0I6BKik2JmQRVvBtwBZjCbPVXGWBzomLxgAgC78GLYocEwFHjvsTf/Q1IwsLbb+9NYCjjAt4TbLdZhmym9FQUsj3f9ZLt1spfsS4jELW0LFE8tBJt0WlNceTZYHrsorBgAyGWXKljo4fM/+Sv8x8IK5+mHK/kCmORRouuU6jDGtolnkv3KG+ZXhVgu3n5J9CbE3aWVqgmMB0vgLO1wFJ6dkxb+3DQDAgaZwacERphco/UdNB3OC5FRlfwBeNXts7K6OcJb5VERRdusB8ystrBbufKX7EmKcte0h1gRTi/dc9XZxnYcWJU332BNSBjeF1d14LaoVEkr/EDrAzeFQZX/gAqPGmVar0Dr6syK+NB8ku3lZ6b6E6GNxi4glyXRmkavdPLp66nqme3CI9BB+cfVaELHKSv8FHGdUeEnZn31juM9ZrsMaM/IYIWlswsHhQ6tFSzMLIRVOoT3rdhNtojmTbW6xnyc9d3jydE/e08rurKXDFk5V+o+q15pntlQ2Vf4Ho8Zyy1X4BAeHjZGeCRg6/+5Oq0U7WOm+hBhhfZcSebLJ4mFXt42c6MFrme5ZU3eGWycxnzvLqZSg9B/O5eq9wwhZyXZWq3CPUaFlZD8+LPpFAwHkH0r3xWJ1YA8Ajr8FqM3nrm4/x7iq3V4DAB351dXvgzJWAyj9F6YK63BwWJuU45a9zmBrTi4pi9OjK4t8l/nxNlaL9qkSfrG4TT1KhEmnlRl8dHB4xXND/34wAFA97LyAn0vZxKT0X5z/aOmbS1VTBmeC1SocYFrE7ZH9+EfmgI40iyXLCdu2pQhVrtO8YmSJ5zBWu+Vtr/bwVUz3+LqONG52SyctpbPSf0S0MZp9ISkILWjfZnVN23QzoRahDVql5sNAJfxi8ZZ6k4iSzylsd3ezH+/pa5jug4WdJ4epeYLSf0SERi87SAr3oOR+VqswNfLFkE2MYA9aLdidSvjFYpB6kwgS0F/cZ9Y/6OTxK5jui50dh7oHBuVyttJ/BAw1yoyRFPQ0WtxqtQqPGhUalv+jJ2i9N4TVJFMUxEKrp4QitQD/dPX6yQcTJv4wAOErKvK5Uum/XDL50+w9qSIt2IyDwySrVbjIfFqOLv9HbzY/2sliuSqbpSOKfXGd+tVyLcDtrloTPLvwz48GIHxPRT7XKv2Xy21Gn3MkhVnTtsPqVQDdTHsYVf6PvmlKlmZZLNeRSvhFYjf11ZOUYwG2h63798enxz8GALJ5K6w8kNJ/2TQ3E1GTJQU3mtZyuMUaZJuTIl8r/0d/w8HhB6ubzK1K+UXiTfUjpXKAGXANxZMeqvYfHAMAWbxWSOc/OUCNr1QmmvGSNtYr0du0lxusVmEWDg6/lPdjNcx5Uk9bLdYkpfwiMVg9apkWYJur1HM+WivhLwMAGWGVAbYo/ZdJ6Ay40dYrkW3G5uwubf88Dg55Racmiz6rtDfd12yrG8xh6j8KsZpPJEIZjAj7WB1vednRRNI67JNZvcimQFGYt9gIwPm+GY9KFHv4DoA+ZFqswhyT7w8q2wCEdo7Os1iqQ7R2tghjyZUIpXItN4X9W0Mma2Y6IezP5+wX9u//x2USpVR2mfneFvS3XouvjGXsYrEG84pk+FIMQOjpZa7FUvVDFOZ5SVAqV/KAq9KfsgBJSP+reRuANB4LqwsgSvvUSqMv1bO7Gb2c8cmPzP5Rm3lfc/6F4gdEaQxzy/48S5rvtqf5Zw1AYWUzeMUttXyMGmEZnX5BUffKlutQ2ayBf9tiDdLM3pl3y/6xP3BwmGK1UGuV9AvF39STlsKh7ta/F81Ymr8sgF8MQHFVs3jPXQx4sBpiKYR2Mw21XolvcXBYYbUG3+HgsKisH6lm9gA8ZbFMbZXyC0VeoXlXEd5SQlbxnbDlRX6yAP4wACUrmuOWBlqmFloKbUx/Pt56JR40baWFxRo8Z/rzKmU90RTIdI3FMp2jpF8oJiFKoi6/GIV+LLK1xj8WwA8GoHQ1a/Cz+c5saqpBlsj3ODjspJblOpxhWspwizW4zmjQNfw/Fl4EGPqA2bwHoKd6jUK8KglKIJt3zD703xnM9kLfW8iRWg4Yt/S/b+nfgCL90hZOYjUAHXmVDIlV6qc3h5Mt12Gaenf301NGj3Sf8Qg2n/v+vZ76w2IXtdWLlsATRp/NpZyZ4Y9RAK+PAJSvYne3BNPdapQl0MQsUn3feiVW4uAw1WIFWppPyp2l/8j7plOz99y3HLNeVOGo4yiV890TEgZUIHnJAFQ0/QOcxF5T9PYUNcwS+MoYedsnSd4xOlSyVoHQPoAy9kIswcHhG4ubyeFK+oXiAvWgxTjYXft/eRwSmAxARdULHfayVdMtJXC1Uecsy3W4wehwiMUaFIxu/1rat6ua4aJnLZboWiX9sMilnnrQItRhsVHnpTgmMRmA2JVLc08IWEANNdAi7Gd2Ath+nFfohNcrLdag4DyAveSU/O0uRqK/WyzRq0r7YTFR/WexZPOR0WZGROVVvG0BvGoAolWtBgvMz7+uJlqMaeaw6qpWq1DNTBW9aLEG/zSfko4lf/s08+2TLJboF6X9sLhcvWcR/maU2UDrBCUzGYBYFDuQzeZ3LlQjLcI/VA4IgNk4OFYXuR9adoa/3ny7g8UuMU9pP6wEUGP1noXozC6jzHEJTmj2GoBY1RrurgTYXw21EG3cg6rtZqwZALd3JKRz2WP8T5vVtPZWju6rtB8W09R3FqISPxll7k9SUrPPAFREqafdwkxZaqyFKDgTYLXlBwOH1nfZe9h7VbMe5PGSv11QWnOpxU3kKqX9sLhZPWchHja6zCltEY3vLIDXDEDFVKrqrgT4txprIe41uhxqtQr9NbHJChwcPi35m8twcJhssTzPK+2HRRf1nGEcY9zzjhinyLxoAbxlACqu0CHsMcO8fdRgw+hndL3NahVq6aQbvsbBYXFJ38ox8982yzNLad+NPy0uB1XS02Vo898VKUxwQTYA8VEnVBPglxhGaYJLBut8c/BzIvnN+uPNQxsBs4t/q4P56IyyVpxsVQEMiyfUb4YxxqjyUYVskdcsgHcMQLyUyTCV7xzuUKMN4xWzvquJ1Sq8ZaoB2rtG5Gbz6ShhoexJ5lunWStOd6X9sBisXtPlULOHeButPJLogmUA4qnK/uw0Ray6quG6nG30Pc9qFW4xKnSyVoHQqYjuLqZ960Lbmq+LrBWni/oJlz18IRHckaFnzVlzN7Ckgq+lkwJLStmln/gXi8IFz/6ZPKkTAl0m4gAwyGoVZpqv9lrDxUWyfRiPG29Q3VpxHtJzvxtfqs8s9tzwTZy2UXlnFMALIwDxVyPLXctztRqvyyyjsc0re5qadvEfaxWoZRR4qPi3PsXBYaXFzeNTJX5tASxGM3P0z+44FsjyigVIvQFIjBKHmCmbLSpl5RI66v1gq1XYiIPDBxYrsL60U14LVjlPsViaP5X43eipHtPwWkK2UHnDAqTaACROhQfM6z6tBmwYZBS5zmoVvsHBqfBEnp/5zhybVYR0swJ+rLXC1FTad2ODZk8Nh5u9w0up4pvk5xcDkEgFqpuSJ3n0UCMGoDI7cHD4xGoVQtVuq1mrwKummklaKPEX0MjsDLS3DmAH9REun5MnEYB0HjIflOvYEefXtn05YHyX/hVlK/8qcgdtZ6cZ3e1tdaHk+QCkcZC1CiwzdrBuYQPQrNC3bUQrsvehJYAFnM8hAHzLuAS8us0WILHpH+A5fjQJ71Q1ZAC+AqAq3S3WYK71vX0owzeXAZABkAEoi8qmpnw+V5lNVLIAfkn/kO/Odt+rw4HCDAD0s1iDedb39ksLZ3wZABmAomxmjkQALjd108aaZ0lZAP+k/wIbOx6A1lygxgx8xy7rDcByNmsEoFDGN4RWzday2Blp8V9BvKe+EqjKKlM4tFnCE2KqlgOmYhFgMq+2LblmCWclNWjgCxwcNlm9xPfb0o/DsYL65tN3b0kjANvYZKks1Wmq/sHwlSQArqQhAE8lfFTMplGAZD39F7CIF03vdokatPvJrml1LYCCVQAtqWzp9a9jZ0kjANNwcBL+gfQuXfXk78ah6impxhocHHaadBWk5+LUjQAk/ypbmO3NK+K+jdOPDDTqX2mxBv80Gti76+vX8Io/hUcA7N0E2Fa9g2EXsyQC11AfgMfMs3misWEUILlP/wX8wfMANOYyNWq+M9t7bS7ztcj6Hn9p8RGALFM60966WTfoyd/EFPWTVGGtOf2vQVITZLKfj5M5ApCqlQ5NTAGcP0s6A906fsbBsfjANzjYtMK/W6vA8+a0zMx9IwBNzLIQe/cAtFHf4D4liBHUM8//a5L4V4M8CpCKp/8CVpgxgCacoYbNNNPbNbR4BMCxvMcvyPKZNNpnALQJUFMAMgAh0swpcrk8kuS/HFQLkLr0D3C/Gfi+TjUB3U+3vet8trPa8h6/0EbAAgMQWgG/XCMAekawXoGTTKHQV1PweQiiBUht+oclvAtAJwbq022+ahWA7SMAhVYBXGvmRWwtj1CZPM3+W38cdIivjRZdUpYwkzVbnow1AF449OhQ8w4+tr5tp7MJB4dPLdagYA58r7VrQjqbT8NV+0YAQjNCayyVpI27G8J2frRegR70AWBSynZDBGkUINVP/wV8z7cAHE1Hy1t3PjMB6GaxBgVFgDJoaen1rzZfG+wzAAVrnfeywVJJtAIgxEzrFbjUfP2/FL6HoFgAb6T/fXczjZH6hANQ1+LCZ7ZvBFxn1sQ0LDoCsJZ8SyVpiZABAKjG6QD8luJz04NgAbyT/uEdM/N5rrUV4ELMMl+7WD4CAK0svf481pdsAFZb2ySaK/PLAABwJtUBeDrlZtjvFsBL6R/yeAGAWpyiTzgAXa1VIFTuzt4xkIKp/rAaJ8ssXyIzTsv/cHDYaP1Gqe9NkYwmHkmiiV1Al7hFgAd4YOlfYVqahb6TLW/hmezEweEtaxVIMwq8bK0Cn+HgsGTfCED9MF9gIzoIKPR04Fh9/Z05BIAJrPDE+/HrKMABnnr6L+B3JgHQn/2tbuN7zWHf9h4I5JjPVDNrFVht+hRjAGqZwzLtnQJohgD42fLrv8h8fcYz78iPFuAAPjcjKN5J/4ApdJ7GBfqUAy2paq0CS2UAgMpULzAADQv9Z/swRRGFxadBFpjhYQAsT/ECQH9bgH3pf5Wn0j+8yzoATrd8omu+ae0HWatAwYLQ/UwBfPsIjfU3KGwAbJ0CaGJtQyjKXKuv/ggaA/Ca2SYjCxCk9A97GA9Aa7rrUw7Wln0LGYAsa09ECD3qN9QIAGgCoOizga0MM1/f8Nw784sFKJz+vdeaQnd2uNXtfJ4MgPlq6+6vNYUNQAMZAAGstLYQFEAGQwFY4slqiH6wAF5P//ClKXV9htWTAEvZarkBWGp5zx9WCzCd0B4AWGupHNoDUPjJwE6ONCNhb3h0J4TXLYD30z/km81vzaw+DMcxd6eD9SMAthqAImsA6ph/XWepHFoCWMACq6/+VPN1nGffoZctgB/Sf4G9K+A0fdJpae1xOCss7/nXm6+1Q9sAAXayWwbAahZaffXHAfBbgs/GC6YF8Ev6hylmEuA4q9t6QTX8DFpYev0b2RN6AraS7eb6axUYgNoAbLL249AQsa9bsJP2pjP80PMmzXsWwD/pH/LNFs/21iY/2FcN39bjcBwz3W1vz7+5+AiADIAMgL0ca756vxy21yyAn9J/+B0+Rp90i09BXW15z78pfARABkBAPr9bbwB286UP3quXLIDf0j98aqo82GwAQpN9baxVoNhxODIAthqADOoq+wNLrV0DApXpA8CXbPNJB+4NC+C/9A8b+R6AgWRZ2943stFyA7DaGIA0a1uADIChruoAAvvmBW2kvzkl3j/nYXrBAvgx/QN8BEANelnc4hfJAABZZv2brSMAtSGdTHMohK0GQBMABfxu8bX3NV8/9dF7TrUF8Gv633eX+1rc4v8AbC6BFrYT3mIDUIOMdGqZYZCNMgBWs8zia+9jPgH+KoWUSgvg3/QP081ET2+LW3xBLbxq1j4Br7G89y8wAGnUSDcTAKGNAfZRX7nfcgOQZQ6HmerRGoDeswB+Tv+w1xR77kW69Z92FcO12QBArXTXA26yVIo6yv2WG4BuVDEGwH+kwgL4O/3vu9O1dByOtcfhhMa77V4DALX2jQDYagBqKfdbbgBCQ8Hf+PLdJ9sC+D/977N69k4C2H4czkbLe/9Qtq+dTg3zj7ZOAdRU7gdgubVXXrAaPNeTpwB6zQIEIf3Dt+RbbgBsnwLYJANQkP3SqWb+cZulUtRGwBZr7z9mBcAsdvj2CpJlAYKR/mGTee/drG3za9gL2HsOyiaz3sdWA7DdfK2abuY/8XH3VzFqIfYtirGP6rQEYKavryIZFiAo6b/A7gEcSCVLW32+5dXw95oHHlsf/0LZvkq6KYEiAyADYCedzTbY2T6/jkRbgCCl/9DdzuQgyz/xKoZrtwGovG8EYKcMgAyAlQaAQBiAxFqAYKX/fXe7s7Xtfo3VIwBhtfCsZKdGAGQAZAAAOpmvcwJwLYmyAEFL//sMQCfrRwCsr4avEQC7DYAWAe57HrB3BGA56wNxNYmwAMFL/7DMJADbDUAla3dB2T0CELYGoMAAOOyyVIrqyv5glgTZSLtCT4SyADakfwiN+LS3/hNvayXUgm3vNSy9+mJTALvMzljbyCRb2R97T4KoYSpBLgzQNcXTAgQ1/YfOw9vP2kOBbS+FU/AMXMnSctB72QOETQHYugSwinK/1Qaglfn6R6CuKl4WILjpP3T6ZYZK4VhtANLcNXB2jgG4UwC2rgCw9faX1h3YRstC6UAWwJb0v++Ot7L8E2/7OnhbM8AOGQCNAMgAhAzAksBdWUUtQLDT/7473lIjAFYbAFszgGsAKheSQwZABsAmWgR0BKCiFiDo6V8GQGsA7M4ABRm/sgyAAHuPgmpprj6YayBitQDBT/+wgt0aAdAIgEYAClbB77FUBq0BANhrrQEsKIX6Z2CvLxYLYEP6h3xWGl3sJHT4V1XLRwBszQC5AGSlkwFAnkYALGantVdesAt6XYCvMFoLYEf6B0zpp3qWtvzQxm+7F8HZmwEKToPMTCcz7F9lAOz+MNhH3bBUIAtgU/oP3fW6ltt+u+fA7b3+gkf+DNtHAFQGyOYRgHSzCWpdwK8zUgtgU/oP3fV6ln/qbU2Aocq3th4ILQMAYMY/NAJgJ7VNHbD1gb/SSCyAXek/dNer2L4T3OoEiMl/9uFOAdhtAGy9/RoBCH/6W2/BtZZnAWxL//vuel2rP/W22p+9lmcAjQDIALjYehBU6CQ0Owohl2UB7Ev/sMF8rSUDYPEIQKbV1+8aAFsXAcoA2Hz3cywzQKVZABvTP6YOgL2zwHuVANEUgGkAGgGQAbCP0BJQe6pgFLYAOSYB2pj+ZQDylADRFICmAIS1d79SkVRgmwXY3zz/25j+99k+W3cCaQRA1y8DoOyPNoHaVQdznwXICvt/29K/RgDsHgHQFABAZhq5ZALrWWqlDA3YT/mfzfxm5XXXNpXgF7HVsiuvxP4m8ReQy0KrxkEAatIagN8sPQmjLdWB3cyz8upzaAfAn6yx8vpbUAfITSOfNGVAIYQQwiry06WBEEIIYR+Z5JkpgN+tvP6GNFUjsJ5frZsCyOGAIlMAv1pXDaImbdX02c0cK687hw4ALLN0CqAldYE82IWDwwuWNv+rcBTWx7GWtfoD+LOYBqsiPCw4OJyqlo/DAkt7/k7m+q+09PrH4uCwM11rQYX12LURbF/Zn9yw/4/ssGDddfWAwSDD8us3pwDLAAhh00aw8Kp/CwH4NeLDgnXXg4ftNWDtvv68dJWDEBoBsDL9DzCz/rsjPCxYBkA9YNCegG0fAcnTCIAQOVam/31lfxZaaQFkAPQErCkAGQBhPXWsTv+2WoC6avjYexS4pgA0AmDx7Re2pYLyTvyzzwLIANhsADQFIAOgEQBhSSqI5MBf2yxAPTV8YIflIwCaAijkh2xjj3oAEfhUcECEB/7aZQE0AmCzAQit+9lt6fUX2QWQoeYvNAJgdfq3zQLIANjcA1a2/Po1BSADICxIBdGkf7ssQB01fOxdA1DF8gzgTgEUDILbWhVLBkAQ4COho03/9liADBqr4QPbZQCspOAkkNx04wAry/8Ka6lJbaV/yyxAE5UCBmCjpddd2fIMUGCAdqQbB1RFIwDCYloq/VtmAVqp0QOwSSMAdhsAu0cAZABEMA1ARdK/DRagpRq9RgCwfRHkTttHADQFIIL4PFjR9B98C6ARAI0AaARAUwDqAQTQQunfMgugEQC7DUDBE7BjDsSy3gBUIt1KGfaqFJAA9lf6t8wCtFWj1wgAu8m38uozzS4Adw1AmrWrADarDxB0Vvq3ygKk0VGNHoA1ll53LdkfwtYA2LsMcJP6AMF+ASkGFO/0H1QL0NwkANvZxRYZAAtxl0Cmu8vgbF0FIAMgADop/VtkATqrwVv9/I+p/GHrHgiNAMgAiIClhESl/yBaABmAAlZbe+UaATAjADssHwHYqF5ABGAEIJHpP3gWoJMavEYANALATk0BaARAAHRR+rfIAhysBm+1AciiqtW9f5V9IwDbzD9WkwEQFnOwjy1wMtJ/kCxAHQ5UgzftxU5qWd77VzVft6e7EtSyVAptAxQFzwSHKv1bYgF6k6YGD8BSGQArCR1+tlEGQGsARCgtKP3bYQF6q7EbltmeAC2//k37DEBtS6WQARAFHK70b4kFkAGwfQSgtuUjALWKG4CalkqxRr2AMAbAb+WwU5H+/W8Bsumuxm75CEBDy3v/muEGwCnkCWQAhK2u2F+pLFXp3+8WoLu1NU+KstXaJ+CQAbC1DkJBts9nSzp5Zh+ArQZgtfoBYThG6d8CC3CMGrrlz//QwPLev2AKZDP56YTmQWw1AOvZq55AAHCs0r8FFuA4NXTDb5YbgD3W7gEryPabIJ3QMjhbDUA+69QTCAD6+aQahhfSv18tQD16qKEbFll75QVTAGvM9LflBsDuEQBNAogQ2Ryp9B9wC3C075Z6Jo7FlhsAnYQQZgBqWyuGDIAI4f1JAC+lfz9agGPVyDUCYKYAbDcAG2UAQPsAxD6O93iNOK+lf79ZgAwtAdQIAGnUt7znr1l8BCDb2s0xGgEQIVp6eobYi+nfXxagn7v+W+zld0uvvDZZVhuA6ub6N4UvAoQ6lsqxSn2BcBmu9B9gC3C6GrjL7+RaeuX7Wd7zh9VBTA/zQQ0tlWOZ+gIRliK8OQng5fTvFwuQySlq4C5zrb3y5uarrYWQw8ogpbNvCNzWwTEZALGPZhym9B9QCzBAEwBhzLP4M253z1+KAdAIgBBenATwQ/r3gwUYrsYtAyADEH4SgqYAYIVqAYpCaSJT6T+AFqCSJgBkAIDQFMAea5d/awqgEHlaBijCaOKpYrH7+yj9e9sCDLV2mXNJ5LPA8hGAP8m39PobFDYAm9ll9QiAJgFEYS5W+g+gBbhYDTuMJeyw3AAstfb6CzL9DrZjymKukQEQwuV4d6NQ6tP/fsar+yX9e9UCtKK/GnYYM6298jTzmbL9LMTVEDIAq2UAhHDJ5Hyl/4BZgEt0BkAhZll75Y2oZHmv37CoAVgT5gtkAIS4KOXponD699+CLW9ZgEzOU6PWCACwbw/AchmAwiMA9cmwVJDf1R+IQrTiBKX/AFmAoWYlhZABaGO+LrH0+jPMYtg1RQ1AhrWrZBepPxBF+JvSf4AswN/VoAuxhpXWXntby3v9+uFZP3wKwN5VAIut3RAiSqM/hyr9B8QC9EvZvdTzv1dHAPL4w9LrDysDFDIAoX3wtg6T7WKF+gRRhGuU/gNiAfT8X5TvLb72ghGA39lj6fU3Nl/DRgBCi+CaWdsoNAkgijKMFkr/AbAABzBYjbkI31k/ArDY2usvdBSSDIAMgCiZzKSPAQQx/afeAvxdGwCL4FhsAKqZIXB7e/xCJyEUfDRWkGe5AVisXkEU47KkFgQKavpPrQVo4YmaDl573Fln7bW3Ncd92z4CkFsw8V9gAPaaVQAaARBiHzmMUvr3uQX4F9lqyEWYZvG1t7G+x28W/tCfHj4cIAMgRCFGJukzEfT0nyoL0JYRasTFsHkFgO2bAIuchBAyAEvDBgfsNACO+gVRjErcpPTvYwtwq8eOdvYG31h87QcAkG9tGaA0moY98hcZAahibSmgbSoHLErkQlor/fvUAhzAGWrAxdjMzxZffQcAlrDT0uuvT07pBsDmSYB56hlECWRxp9K/Ty3A/Xr+L4GvzZJvO59/DwJgrrUKNC+c8WUAZABE2ZxOb6V/H1qAgQxR4y2Bryy+9mbUtLy3D2X4pTIAMgAisqeGRxK0k9zG9J8sC5DBA2q6MgBFaG99b99MIwAyACI6uiZkLbmt6T85FuAyOqnhlsA2Zlh89R1kAEo2AGtMZWR7DcBc7QMQpXIPNZT+fWQBajNajbZEppJr8dW3AyCfBZYbgB2sL2wA8o0jaG2tMFt0IJAolYbcrPTvIwvwb+qp0ZbIRKuvvmAE4A+2W6tAQYZfGvrXfXObBYUR2ljcOOYiRGlcS3elf59YgJ5crgZbCp9affUFIwA2T/e2Dcv2hQzAYvNBrGGtNFoFIEonk6fjtKlM6T+xFiCbZ3X8TymsYo7FV689ALWpXbYBsHkMYLb6B1EGXfmb0r8PLMCN7lIvUZSJVq906mJ9T79/kWxfbApgX61k+5ip/kGUyegKfzqU/hNtAQ5M4gFO/uMzq6++m/lq7z6IYkchFTcA9o4AzGW3eghRBpV5pkKDy0r/ibYAGTxvSp2K4jiWLwHsCsBOfrFWgbaljwAsJt9yA7BHXbIohyP4h9K/hy3AzfSSmKXyIyutvv4uAMxmr+UjAHn8UdwA7DYfwLYWNxBNAojyuD3G3QBK/4m3AL3ivFkzaHxg9dXXNnXwbe7lC7L7H6bqTyEDEJoEkAEQonSyeY1qSv8etADVeEGH/8gAlEpX0qzv5duEZfpSDMB+VJEBEKIMF32/0r8HLcCj7hpnURKrmG65AbC9l69Gw7IMQMHCgDSLqwHOMusghCiLSzlN6d9jFuBszpN8ZfKh5cXOCwxAnsWVENqYMZDFZY0A2DwJsJ2F6idEBDwf8V5zpf9kWIBOPCnpyuF9y6//YAAWsMNaBdoWyfSlGACbB9JmIET5VGN8RDUzlf6TYQFq8RZVJVyZ7OATq6+/uikDrCWApY4ALDQD4AdZLNH36ilERBzEi2ZATek/tRYgjeesXrocGR9Y/OQLcCgZAEyzWIOCT1JeaQZgh9kdaHMhzWkIERknllNzTuk/ORbgFk6RYOXyluXXf5h6ePM5Wsyu0n5gAg4Om8t9sgkuldiFo1BEFHs5sYz0v9z81Kq4n3YfL6bj4Hh2bXhkCg4lTy2x3Nhl8SFvBbyHg8NOsq1VII2tODi8Hf4fCxc2LXhKqUFTa0XazSw9LIgIyeA198lCT/+pGAXowVid/BcBn7LFcgUOBeDHfSVwrKOFqV8ytzwDgGefWJLBd+otRMRU5m1aKP2nyAK05gMt/ouINy2//jZmB7zNEwChqf355RsAm1cByACIaGjER+aMbaX/5FqAmrxLA0kUAbt4x3IFeqp3dz89ZYwAzDelItpZLJOWAYroaMebVFL6T7IFyOE9OkqeiJjAZhkAGQAA8gufhVjYAGxjaSGvYCO/sVo9hoiKI3mDLKX/JFqALMbRT9JEyKvWK1CwUmcFyyzWoIPJbztLNwCh4YEOFu8DUC0AET0n8iqZSv9JsgAZjGWwZImQzXxkuQJVzEHANo/uppn6PkV6paIGoODbNWlisVRT1WeIqDmVN5T+k2QBXuMMSRIx40vf920JvczmvykWa9Cc6mGP+OUYALsnAb5SnyFi4BSl/yRZgNMkRxS8bL0C/dSzl7wHQAagJH5ku3oNESMr6Kf0n2ALICLnd76UAQBgi9U1XkrcA1CSASjYB9DZYqlytRNAxMyX4Wdtibjymz6ZUfO89UecZ5siQFPIs1iFTgDks6BsA7CV34DQ2cm2okkAEStn8rw5dkTElyxe4VTJEBUOL1mvQU+qqFc3Gf3XokdCFS+jWXBcYgeLayajQTNRAUbwVlhdABEfKvEGwyVDlEw2D3Q2oxUAUMnsASh2GHJpBiDb6lUA06xfNysqwom8Z/3hK/GlDp9wsmSImuckgTEAOzx76FUy6GTqlMyK1ADYPQmwmx/0uREV4GimlnBGgIiNVkzhCMkQNRsLn/xmJZn0AuBbi48B2pfNIxgBmCEDgCYBREXpyDd0kwxxoCfTrC5OHjv/K1z1zUp6mP3vWgEQ4QjAalbKAPC5eg9RQZrwFUMkQwU5hck68idGnpEEDFKPDqYS4nLWlm8AQsMEXaw+Z3uKagGIClOVt/mn1WW1K0YatzDerOEW0T/EqB5FyABstXoDabrZBDizpG+VZgCq0cZiyfZYXTZSxIsM7uVdakqIGKjBm9xu9WNIxXhSElDdHAP0ObkWq3AA1aI3ALZPAkzUp0fEhSFMM5twROR0ZjqnSIaYWcs7EoH+ZvW73b15qUsAZQBkAETiOYjvVcImKs7mW9pKhgo9/++WCO4KABmAKAzAEjbKADDbLIYUouJUZzxjzUCcKE+rJ3lJM/8VIpcnJIJrAJbziwwAG1kamQFw+FkGAIdJ+vyIOHIuP5k9yaJ0DmU6IyVDBXlNxyYBTc3U2yeW69AFgFnmnJ9yDQCmZlIDWlotmyYBRHxpzZdcr2VtpZLBv5jK/hKiwjwiCYCj1ZMDbagXltUjMgDfma+HWW4AHH2GRFzJ4m4+V4orkXZ8zW1kSogKM0WVTAE4BoB8JlutQmjUcVrkBiD0oz2tFm4ls/UZEnGnHz8z2urDtkoyRqOYqQmSOPGQJACyzAjAjOLlb6yiZ/QGYCkrNAIAvK9PkUgAOdzKj5bb68LPKDO5RycoxonF2gAIQF9qqRd3DcDykleFlDYf+T0AXS3/UMoAiETRiak8qBJB1OZRptBBDSJu3EueRABOUC8O5HBw6c//pRuAglUAlcwv28p3rNbnSCSIDK5hMVeTYa0C6YxgAX/Vssg4spoXJQIAgwFY6R5vZyfdzWTjd9EZgJBfsHsSIJ+P9TkSCaQuDzHbLFayjQHM5AUd9BNnHmSXRADacIB5/rd7KfdhRTJ6hAbgB/YCWD9P+YE+SSLBtONjxlu2M6Ad7zKJzrr5cWaLTgAwnKQePCyD55Y2DlKaAdjOXI0AAJ+wR58lkXBOZQFvWGICWvIkszlRNz0BPMYmiQCEJgB2W1/OrSCD/8yO6AxAaM6gNQ0td9Rf6bMkkkA6w5jL2ICfwdmcJ1nISIvXPSSS7TwoEQCoSR8AJrPNah0a0wyg9MOQyzMAcIjlTUmTACJZZHEu8/hvQEcCDuQpFjJSpX4SxqOW73jfx7HmFEDbe+9eRbJ5FAZAywALeE+fJpFEsrmMBUxgYKCuqg9vMJdLVP4ooc//D0gEQ8HZm45qAMRuABawGYDelkv4G7P0eRJJJZ3BTGQawwIwVJ7J6XzP14G4Fm/zOGskAgBVOB6AH/jDciUKsvd6FkZvAPL5xowA5Fgu4pv6RImUuPc3+IM7aOXbK2jDXSzlNeunEZPz/H+/RDAcS1X13EBl88mbUvpWyLJKcBQsf8uhh+UyjtMnSqSI/biJRUxhJJV99b4rMYyJLOQGGusmJoVH9Pzvcqr5+pblOvQyU25lLGQvywB8ab72s1zGX5ivz5RIGen05kmW8SQDfDCMnsEgnmYFbzCQNN28JLGJ/0gE13wWFAGexSLLlehX6FE+agPwI9tlAAANJYnUU5eRTOJPHuMIj5bOzeBI/stKPuVi6uiGJZX/sEEiGAaaEzbUaxdk7q1lrWIrqyvJNTsBepstFTIAQqSWhvyFL1jB85zuoSRblzN5gRVM5jLq6yYlndWMkQgup6rXBiDb7AGYYqr6lkjZe3K/4iigGl3N6YC2MovFAS/QIvxlA87nfPL4gY/4lOnkpuh9ZNGDYziWHlrhn1LuMGO1AjIZAmjiFg6hisnixG4AQkMJ31su5lv8Q58t4SkyOIzDuI0dzGQ6U/icdUn6y9XpSR9609tnSxODyRKekgguR1EP0NJtOKJIFo/BAExjFzlAP+u3mIyXARAepQq96c1VOMznJ35mNrNZmoC/05KOdKQzB9NOy/s8xPU6rySMM90e23YKVgDs5Meyfqi8D/JX9AU2U5c8y+X81bLz2oSf2cRsFrGE31nCElaSX+JPTacbMIPuJX43nf1oSSta0Yq2dDRLq4S3+I5elh94G04Oq6gJzKe95UpksoHqwGSOin0EIGQAatKRnywX9DVu0edL+IRa9KWv+297WMk61rHexB5y2QYmpddkGFCNLLKpa6I+9Wikwr0+4Dql/zBONG36JeuV6Ep1k8GpmAG4CYAjrDcAr8gACJ+STQtalPrdNrwhiXzKOKZIhDAKJgAcXrVeidDm/S/L/rHydhR/Y1YYH2m9oAuYoc+XEMIz7OZ6iRBGLY4D4FuWWK9FfwD2lH4MUGQGYJtZQtBfh3jKVQohPMQD/CYRwjiNSuqpAcg2BuBbdlbMAMCnxlvpQI9XrF8IKYTwCn9yl0QoRMEEwF5tAaQX1QCYWN4Plm8AQi8xyHpRV/C1PmNCCE9wHdskQhhNzFPvJFZbr8WgItm7AgbgOzbLABg0tCSE8AJf8bpEKMQ5Jpu9IilMtt7I9IobgL1mHeFh1LBe1nHsUtsSQqSYPK7S9r8inA/Adt6xXonaprLHpPInrSM5V6xgGCHTLS1oLxt5V58zIUSKecT6bdlF6UU7AN5ki/VaHGXO5phY/o9GbgA0CQDwvCQQQqSUpapJUowL1EO7RLwCgAhrei+hJfALB1kvbTpLaK4WJoRIGScyQSIUojIrqAUsoY2mRlhMa2BRJMXr0yN6wUkAHKjURz4v6tMmhEgZLyn9F+M0apnnf6X/trSO9Pk/UgMQeqmBamk8qyYmhEgR6/m7RCjGBebxbKykiGYCIFID8Jk5TUyrAGCJqgEIIVLENayRCEVoaRaoT+IPiWGydB5fxM8ArGemeekM6atlJkKIlPCxzrkr8fk/XT2zIYsBAHzPxvgZAPgEgLocJoUZrwpcQoiks4O/SoRiZHIhAJtUAQDoYw5E/iSyH4/UALxvvg6WwmxTRUAhRNK5SYf/lMAQmgLwYnkH31jB4CIZuxzSInzZdFbQEJhDJ2nMwcySCEKIJPIDvXQcWQl8zDEAdGKOxOAXDgBWsl9ki9UjHQHI52MAOtJKGvMT30sEIUTS2MPFSv8l0NosevtK6R9owwHm+T/CvWrpEb/0B+brCVIZ+K8kEEIkjVv4WSKUwKUmhz0pKYCTimTrckmL+KVrsJZs4GOOk85UZjl1JIMQIgl8xQA9/5dANstoAKyjmQ5qAyYxANhNvUgXqkc+ArDF7H8/kurSmZ28IBGEEElgE+cq/ZfIMBoA8KzSP1CDPgB8Hvk+tfQoXr5gWKGS6gEC8LgqAgohksBlLJUIJXIpAA7PSgrgGLLDMnXcDcB75qtWAQAsYrJEEEIkmOd4XSKUSCf6AvApCyVGWGZOkAFYzAIAhkT1W8HlCUkghEgoi7lGIpTC1eqJC+XyYwGYw5LEGIBQcYEGdJfawNvRCC2EEFGyl3PYKhlKpD5nA/C7TkcEoCcNw7J0QgxAaGjhRKkN5Ml5CiESyGimSYRSuJwcAMZogSQAQ8zXD6P5pbSo/kQmq6kDzKOD9AZqsYxqkkEIkQCm0F/JrRSy+Z3GwFaasVlyAAs4EFhHY/YmagRgr1kI2J520hvYpPOnhRAJ6l3OUfovlTNoDMCzSv8AdOJAAN6NJv0T9XK+N83XU6U4AA+RLxGEEHHG4UKdbl8GVwCQz6OSolBGfjO6X4vWAExkiwxAGAvNGQlCCBE//s3bEqFU+nEIAO+xWGKEZeRNTEqsAdhtFgJ2oY00B2CMJBBCxJWJ3C4RyiC0AfBhSQHA/nQEYAJ7EmsA4C3zdahUB+BTZksEIUTc+IOzNPtfBgdwMgCz+UJiAHCa+fpmtL8YvQH4kO2AJgH2IRcqhIgXuxjKOslQBteZvHW/yrEbCrLxDiYm3gDs4FMADqW5dAfgRVZIBCFEXLicGRKhDBpxLgDLeE1iANCSbgC8z47EG4DQMEOaGYYRu3lIIggh4sCj/E8ilMnfTAGg+6Od7w4sQ009nzej/9W0GP5cddaQA3zFEdLeKLKUWpJBCFEhvuFIpbUyqcFSagIbaBH5obcBZyqHA7toEH3Z6FhGALaac/D6mFIMYiv/lQhCiAqxmuFK/+XwV2oC8LDSv6ERhwHwSSynRsR2rt+b5ndPkfqGh9gpEYQQMbObYfwpGcqkElcCsIPHJIZhuMnib8Xyy7EZgHfJBeBMqW9YwwsSQQgRIw6X8LVkKIcLzKjzU9on4XKmsY8xnYmYFuMfncBgwKE1v+sOANCGX8iQDEKIGPgX/5YI5ZDFAloDubRlqeQAoDWLSAPeiW08Pj3GP/uqsQ9n6A4YFjNOIgghYuB5pf8IOIfWJvso/Yc4yzzEvxrbr8c6AlCF1VQDfuZg3QNDB36O2VAJIWzlS47W4r9yyWA++wN5dOAXyWGYQwdgK42irwFQkRGAHeZg4M6mBrGAubEtwxBCWMw8TlH6j4Bz2R+A15T+XbrQAYC3Y0v/VOCJNTTkoIWA+xitw4GFEFGwiuPZKBkieP6/AYA87pAYLqHs+0qsLxC7AfjErMM8O+ZphCCOAbwjEYQQEbKdIfwhGSLgHA4A4HUWSAxDGsMBWBvtIcDxMAC5jAegBb10J1xu1RiAECIi8jmHHyVDFM//+dwtMVz60hKA19ibfAOgSYCSmMO7EkEIEQHXaMQwQs7mQPP8P0diuJxZJBPHNIhQkd/9jZbAWprE7kACRxdmaFJECFEOo7lNIkREJnM5AMinE/MkhyGLFdQD/qBV7MciV2QEwOF1AOozUHfDZZbZHyGEEKUxRuk/Yi4w8/9vKP2HcQz1AHgp9vRPBfeth4YeRuhuhKF1AEKIsniOayVChOTwLwDyuF1ihBHKuq9V5EUqZgB+4mcATtFhuIVUeV0iCCFK4SUuqchTm2X8laYAjGW+xHCpy4kAzKzYqoiKVq77n/FoKgkczk0q7CGEKJF3uEBjhBFTjX8CsEfFkgtxFpUAeK5iL1NRAzCW3QBcoDsSxhKelwhCiGJM5AwtmY6C62gAwH9ZIjHCuMDYotcq9jIVX6/+ljmF6GAzHSAAGrOIKpJBCBHGFxzPTskQMfVYTA1gO21YLTlcOplsO86UAkrZCADus64WAoazksckghAijD38Tek/Km6kBgAPKv0X4uIi2TeFIwCZLKUxsIam5OrOuNThN2pKBiGEywqO5FfJECHN+YUcYAOt2Sw5XLJZTn3gT1qQl+oRgL28BEADjtedCWMD/5EIQgjz9A/QhK9oLzEi5C5yALhH6b8QJ1IfgLEVTf/E5fz6Z81XLQQszBhWSgQhBF9xGH8C0JDJsgAR0YOzAFjOoxKjEKFMO9Yrb2gaDg65NNK9KcTFOAqFwvL4kMrA/iw3/75KFiAi01Sg1rmSohCNyMXB4et4vFh6XN5SwVKETM7W3SnEc8yQCEJYzQSGshNYyJEaBYiYofQFYCYvS4xCnEdmWNb1BDXZjoPDXN2dIgzQ849CYXG8bLrrAjQKEBlZ/Gp0OkpiFCKNBTg4bKO6d0YANvM2AO2NaxMhJvORRBDCUp7g3EJlfzQKEBl/ZX8A3maSxChEf3Mw8ni2eult9XP9rihMOzNjo1Ao7IpHStxmrVGA8qjNOhwc9phTAMU+Xjdt53CvvbHZODjsNoUbRfhTgLpChcK2uKfUHkEWoGweMOqMkRRFaMhuHBx+8t5bu9LctH/qLhWhAZvVHSoUFsVeriyzT5AFKGvMdA8ODhuoKzGKcKNpNZd7763VZBsODovjtK4gSFyvLlGhsCa2maNaZQFiYaLR5VpJUYR0fsPBYaspkOwxnjY37hjdqSJk84u6RYXCilhJj4h6BVmAkjjNaDKXLIlRhBOMNk948+11MW/vbd2pYhytjlGhsCDm0CLiXkEWoCiVWaLHyFJ5z2jTzatv8Hsz/9VC96oYE9Q5KhQBj8+oFVWvIAtQmNuNGuMkRTGasRcHh2/jO6sQTwqGJjJ0KkAJXMMuiSBEgPkfx7Epqt9QXYBwWvMPAHaaryKckWSEZVmPDuCsx8FhheZvSuAOPSEpFAGNfEbHeLi6RgFCvGt0uEXJohiZ/ImDw0aqePltPmRu4VDdsWJUZak6SoUigLGbcyrQM8gCABxnNFhsDgEW4YQWRz7g7bd5EPk4OEzWHSuB4eoqFYoArvuvaAl0WYDKLDYKnKhEUQJfGHU83zommTd6sO5ZCXym7lKhCFT8QPM49Ay2W4C7zdV/oCRRAl3cRaae50TzVp/TXSvxY75TXaZCEZh4kuy49Q32WoCOpvrfdlorSZTAC6ZlDPb+W00zRW920VD3rQT+pU5ToQhE7OTCOD8e2GkB0plirluF5EuigXls/DX+VXbjX7bX4XEAKnGp7lwJ3MN8iSCE71lKvziPc9q6KXAkvQGYw4NqViXwV7Ms8mHy/fB2q7MJB4fVWs1ZIv3MQkmFQuHX+JA6Cekd7BsFaMgGHBzyvHfErSeoxCocHDYn4gSARBzcs9X44gYM190rga94QSII4Vsc7mUwGxLy2vaNAjxEbQCe5Bs1rRI420ymP8UWv7zllqZo4QzdvRKpx1o9QykUvoyNCV+KZdMowHHuVspaSgwlMgsHh7208tObftvc1n66fyVyvjpShcKH8S1tktA/2GIBarjF0c5QUiiRAUYfn52O0N+87Td1B0skTRUBFAqfRS6jTT12WYD48KR2/5dDqDxyH7+98Zlm4EL7OkubJtmiLlWh8E0sMWvVk0XwLcCRZjn0ZpopIZRIW/JwcJieqD+QnrC3PgaADK7UXSyR37lJIgjhE16kE1OT+heDvhywCk+b45P+zjI1sBK52mToh/z31kObF7YmaLuM/0nnSz1XKRSej/WclqI+IsijAA+bK5sU4ymKwace23FwWBG3apNJHAHYzSMAVOOvupMlks/5bJcMQniazzmY8Sn628EdBehl8sJ2RuKokZXIVebo34fY48e3X9MUBFpHVd3LUvi7nq8UCk8v+0tPcR8RxFGAyqZgvMMVSgKlUNVsFt/s3w2S9+smlzsCM0XdrELhyfiOzp7oJYJnAR4y1zM15fbKu1xrNLrbv5ewH7txcFhKlu5nKbRnl7pahcJjsZ1RSdvyZ5sFOMqsbd/B/koApZDFHzg47KKxny/jWdNsz9YdLZV/qLtVKDwVn3suNQXHAtQ0qc3hKnX+pRIqFfeEvy/jQOP1ftZKzzKmAT5Xl6tQeCTWco4n+4mgWICXzVVMVE4olTTmmDo6vh8jecvc7uN1V0ulJZvV8SoUHog3qO/ZfiIIFmCouYKNNFfHXyonGZVe9/+lHGIu5Uvd1TK4QF2vQpHi+JOTPd5P+N0CNGGdef+q/V8WU41K3YNwMaEBbp32XBbj1AErFCnc8Pcg1XzQT/jZAqTxgXnv49Xhl0Ffo9KnwbicY83lvKM7Wwb1TeVEhUKR7PjSIxv+gm0BrjDvezm11eGXwftGp4FBuaDpODjkB2NAI2EcY47GUCgUyRz4H+Gz5Wj+tAAd2WHywHHq7Mugm8kDM4OzSHK4aa46HLhsnlJ3rFAkMXZxty8G/v1vAaow17zjMeroy+Q9o9PQ4FxSOj8b73ew7m+ZH5J56pQViiTFBNr4tq/wmwV42rzb2VRWR18GXc3z/5xg1Ug8w9z+cbrDEQ2TKRSKRMb39PV5X+EnC3CaeafbaKdOvkzeNUqdGqzLSme2GQPorHtcJleoc1YoEhq/cXog5lf9YgGasd68zwvVwdv4/A9wVnBKGySYt9VFKxQJirWMIicwfYUfLECmu6td47/l8Y5R6rTgXVoG83FwyKOT7nOZ1GGZOmqFIu6xhXuoEbDewvsW4C533KWmOvcy6WKe/+cG84zEc0xDeFV3uhz6slfdtUIRx9jGPdQJZG/hbQsw0PRlufRSx14OobL5w4N5eRksMGMAHXWvy2G0umyFIm7Jf4y/D1X1rQVoxlrzzq5Xp14OHc3BeQF9/gcYYRrDy7rb5ZqlSeq4FYoKx1bu8fDxPsG2ANl8Z97VR8FNanHjTaPV6cG9xEx+xcFhrzaDlEsD9yOtUChiiU3cRT1L+gsvWoBHzTtaas1diJ2Dgz3/H+J80yR0GET59GKPOnGFIqZYzWjLKs57zQKcbt7NHh0DFwETjFoBPyUxk19MPYAeuuflcp06coUi6ljISCpZ2F94yQIcwGbzXv6qjrxcDjdazSEj6Jca8oWf6q6XSxrj1Z0rFFHE15wa/E7U8xagqlv5/zV14xEw2ah1sg1Jbbq52AG67+VSk0Xq1BWKCGI3L2pc0RMWII1XzXuY78ujlpLNsUat74Nz/l9ZHGfX5VaQzmxX565QlDPjf0egN/r5ywKMcrdfdtDtiMAuhfZKHKUBD1GcC9TBKxSlRD6fczrZ6iY8YwGOdsuYnaVbEQHDjFoT7bnkQ82WhwVk6v5HwCPq6BWKErb5PanC4h6zAC3d0j/36TZEQIZ7BPxhNl12aNPDCLWACMjkc3X3CoUbeXzG2TpZ3nMWoBo/u8+zeriLhIuMXm/addmdTNnD363crhM9dflN3b5CgcMy7qG1ugQPWoA0Xjd/cYlK/0REDn9QUBrPutUSL5umcoVaQUR00WJAheWxkWc5UkVlPWsBbnIX/2liJjKuNYr9z75Lb2vq3K3SRpEIOVspQGFp7GQCI6iiTsDDFmCIGdXNZ5iEj4garDEbWFvaePn/NU3z32oJEXK/UoHCutT/HudRQx9+j1uADm7lvzsleoTcYxR72M7Lb8xWHBy201RtISIy+FQpQWFJ7GACI6ipj70PLEBjlpq/8YGmaCKkBTtxcNhCQ1sl+JdpNC+oNUQ8aDRbqUER8FjJs5yiNf6+sQCVmWZef64MW8S8YjS7wV4JKhvfmKcSnhHTitVKEYqAFvX5kdEcogqhvrIA+wr/rqWNpI6QUC2cZXavbAkdD/yFWkTE9GaXkoUiYM/8LzKCRvpw+9AC3OWu1uglmSPmK6Pa2XbLkM6PRoghahMRc7pxjwqFv2MbH/N3OuuZ37cW4Dx39OZsSRwxpxnVZmjFRH8jxQKy1C4i5g4lD4Wvd/RP4B8cpmpxPrcAR7LbvOKtkjdisvnVqNZPYuwrC/xXSRExae4SEoXCP7GQF7mCrmToIxwAC9CBDebV3tAYThT8zaj2lqQAONCUBFpPHYkRMftW3ioU3o41fMK/GazysIGyAE1ZZl5pKjkSNmJqsw4Hhz0cIDEKeMw0pHslRRTUY4GSi8KjkcdixnMzg9lPH9UAWoAazHJHdRpI1Ch4yOj2kKQIUZ9NODjs0jaSqGjNKqUahWcil4W8w92cQzeV7Q20Bchmoju601aCRjXeXbBqYgN1JcY+Rpnm9J6kiIoeppqiQpGK2MpcJvAgV3Ac+2sZryUWII2x5re301NiRsXHRrm/e+PteGXpRjazzYzICXyoVhIFx/Ou1lKLJLCbtaxiNWtZwXKW8QfL2ShZfGsBPjeTM6sZwLyofvd+k75yOZGPJWUUnMzbACyiI7tlAMIZzARvSeMbLuEpiSAqkNj/ZA/bAdjOHjaxly3sZhub2MRG87+1bJZUsgDA37kfAIeLeF4yRkEO82hlHts+khxFed8MjlwvKaLkNg1GK2KO6foAWWsBop8IGOEWIbtZAkZJ6OybdyRFSbQxJW6301xiRDmO84wSmUIGQCTYApzKXvPzT0i8KGnGNrPUfX+JUTJ3m8b1iqSIkgxeVypTyACIBFqAo9xTSN5SKaeoGW+0u11SlEYVfjci9ZcYUZLNR0pmChkAkSAL0NPdcTSRSpItSgYY7ZZSVWKUzhlGpjla2R6Dffpa6UwhAyASYAE6st78zLdUk2RRksnPRr1TJUbZfG6EukJSRE0dZiuhKWQARJwtQBtWmO/PopbkipprjXqTJEV5dCLXVEpSgcnoacAvSmkKGQARRwvQjN/csr+NJFXUNDKVbvfE8RjmAPOIaWwvSIoYaM2fSmoKGQARJwvQlEXmvy+npWSKgdDJrQ9IikiozWocHPI5SmLEQAfWKK0pZABEHCxAY3dMcTXtJFEMHG30W0lNiREZ5xrJftUxkzHR2Rw4qVDIAIjYLUB95ph/30BXyRMDld3xkzMkRuSEzpoaLSlioou7ZlehkAEQsViAw5hu/nkTPSRNTNxpFNSZCVHRlp04OOzWsFOMdGODkptCBkDEbAH2mK+bOVSyxEQHc/jvDh10Hy23mMb3pYcOLPIXvXVUsEIGQMRgAcIXEm/hcEkSE2nupnadbxM12cw14l0gMWLkHPfgDoVCBkBEyqHu038+50iOGLnELWuXJTGip69JX+upLzFi4EBtCFTIAIioaeDWrXNw+JMDJUkM1GMtDg559JYYsfGsaYI6dTp6DlD6V8gAiKhpWKye6CoVsImBl3RuYkWpo4oASv8KGQCRNBq7U6+yABWhvxm/XkVtiRE7I9yKAJUlhtK/QgZAJJDm7q51WYCKUMXV8UyJUTE+M0L+R1Io/StkAETCaOMexy4LUDEeMpp9Iikqyv5sx8FhLz0lhtK/QgZAJAn4BVAAABk6SURBVIT27v5/WYCKcTh5ODhso7XEqDh/M81vvgoDK/0rZABEAjjErFmXBagoldxVFFdKjHiQztdG0DslhtK/QgZAxJmj2RZha5EFKI97jVLfkC4x4sOBpjBwripSK/0rZABEXDnJ9K+yABWnqymhtEtF7OPJDabx/US2xFD6V8gAiDgxgtwoW4wsQGlkuyWUrpMY8SST742wt0oMpX+FDICIC9fFVC5cFqBkbjP6fEeGxIgvncy5Srk6l1rpXyEDICpMGqNjbjWyAMXpbHLUbjpKjPhzq2l6M3W0gtK/QgZAVHC4+pUKtRtZgKKj1D8aZW6WGIlpsD8ZgW+UGEr/ChkAETO13KNqZQHiw816QE00XcwKyz0cIjGU/hUyACImmjAzLm1HFiBEV3eKurvESBx3mIY3R0WBlP4VMgAiBjrwR9xajywAQGW3+M/tEiOR7NsN8H9K/0r/ChkAESX92RjX9iMLAGPcz5KG/xNMO3bg4JDHAKV/hUIGQETBGVEV/ZEFiISjzFbKnVr9nwyuNc1umcUnLSv9K2QARHSkMTqmXf+yAGVRy51QUe3/pJDOJCP4C0r/CoUMgIiAKoxLYCuy1wKENlNOJE2NLDnsxwYj+jClf4VCBkCUQ2N39ZQsQDwZaq5+I83VyJLHuUb2tTRW+lcoZABEGXTi9yS0JPssQBPWm2s/U40subxuhP/EqoEXpX+FDICIjiFsTVJbsssCpPGhue7xamTJph4rjPiXKf0rFDIAosQkNYq8JLYmmyzAleaal1NHDS35HO1uvuis9K9QyACIIlRL6MI/uy1AR7MhPZ/j1NBSw39Nk5tNZaV/hUIGQITRxj2dXhYg3lRlnrnah9XQUkWOezzQf5X+FQoZAOHSnzUpa1PBtwDPWPTw6WE6sN3ciNOV/hUKGQABwEhyU9qqgm0BTjNXuY12amqp5TJ3H2ZLpX+FQgbAeqryqgfaVXAtQHO3Ds2FamypJ9TYpwXyIAalf4UMgIimx/jZIy0rmBYgk2/M9Y1TY/MCtVhibsjtAfwwK/0rZABEpJzMJg+1rSBagLvNtf1h8Vk0HuNQ9uAQvBMClf4VMgAiUrJ52HOtK2gWoD97cXDIpZcanHe4xS3JUE/pX6GQAbCOpu7QtCxAoqjvlp8bpQbnJTL43NyYCQEpDaz0r5ABEJFyJKs828KCYgHS+chc0UTS1eS8xX6sNTfnBqV/hUIGwBoyuTOp5X5ttQD/MlezhiZqdN7jBFMaeC9HKv0rFDIAVtCcr33QyvxvAQaa2f88jlWj8yZ3mca2mv2U/hUKGYDAM9Tdky4LkEgasdJcx21qdN6do/nU3KRvfFsTQOlfIQMgIqEKT/mqpfnXAmS6oyyTyVDD8y4N3fR5r9K/QiEDEFjae6bgT/AtwIPm/a+kkRqet+llagLkM1TpX6GQAQggaVzBTl+2Nj9agJPM6rJc+qjpeZ9/mqa2kTZK/wqFDEDgxjkn+Li9+c0CtHVrK16rpucPd/ymuWE/+eioRqV/hQyAKJ/TWOfzFucnC5DDDPOu3w1IhRkLqMVic9OeUvpXKGQAAtOzvRSINucfC/C8ece/UlPNzz90Zoe5cZf44N3ur/SvkAEQ5TCApYFpdf6wAH8x73YnXdX8/MVIc+v20Nfz6X+50pBCBkCUQWUeMEvRZAGSxeHsNu/1AjVA//GcuXkrPF24UelfIQMgyqYX8wPY8rxtAZq6pys8qQboR7Lc4g3fUknpX6GQAfDls/89pgitLEDyyOE78x6/8Wz2EOXQyE2vLyj9KxQyAL7jSHdBsyxAMnnWHT/eT43Qz0Nnu8yNvELpX6GQAfARNRjj8VP+gmoBrjHvbRc91Qz9zXnmVuZ67IxApX+FDIAonWP5w5IW6DULMIBc884uVjP0P4+bm7mOVkr/CoUMgOdpyFir2qCXLEAL1ph39bAaYhDI4gtzQ2dSRelfoZAB8DBpjPB9rT//WoDK/Gje0RSyg9/Y0i34QOVyOssA6MLTHijnuD+fa2GJEKIEOvI1L1DXwjGPyR6wAGk8R3cAljKUPWqOQaEr242vu0VP/wqFRgA8SGVGu6VnbIzUjwKMdiv/HaLmGCxGmFubz+lK/wqFDIDHOC7gG/68bwHOdGstnqPmGDzucd1dL6V/hUIGwDM0s2zRnxctQA93lPhONcggksZr5gavpbXSv0IhA+CRgf+daocptgAt3cK/461YGWfpRy1U3nFu0g93VPpXyACIopxmzW5/L1uA6vzsfhqq2tT87PI6OznZ7Adoz2tkJjX9a+W/ECKcA/iIcTSXEEVI9o6ADF6hEwArOIntMgDBZaV7g4/lP0r/QoiUUIcHmcOxEsIDFuAhBgOwjeNZLvGDzgnu2Vp/SVL61+C/QlMAIkQWI91qc4pUTwRcaf5eHiepadrBP8wtz+VopX+FDIBIIgOZo1bnGQtwnPs4+Dc1TXt4wtz0LXRV+lfIAIik0IMv1eI8ZAE6scn8pWfUOO0ahPvM3PgVtFD6V8gAiATTjBfdQjMKL1iAVqw0f+ULG+r+l4StOx5zGc58ABrzIbUTlP619E8IAXW5h184xwMnkfiNxC0HrMuHNAJgDifbWvff3pIHGzja3RL4UQJOCVT6F0JAVUaxmFFUlhQesgCVeZeDAFjBCWyyVVybax4t53hz43vyKhlK/0KIuJLNSBZzT9LLjskClJf3XqI3AFs4nqX2Smt30cM5DGU3ACfyiNK/ECJuZHIxi3iShpLCcxbgQYYCkMtp/CR5bWbfCVB/j1v619I/hRYB2kwG5/KL2pZHlwNeb14xn3PVVMUNcW0OSv8KGQCbSWcYC9SuPGsBznAf+a5TYxUAj5kGsYsjlf4VMgCiAslfT/5etgBHsdu81sNqriL0sX3TNIrNdFf6V8gAiKjJ4gIWqT152gJ0YaN5nXfjvOzbt6lPQD7nMBWAGnxMu5jTv5b+CWEjOVzGAp6jjaRIMBVZDrg/H1MLgO84kzyJKQMQYicnmcJA9fgkpgM6lf6FsJHqXM0i/ktrSeFpC9CCyWZHxlyOZ4eElAEIZz2DWAJAMyaZClFK/0KI0mnAaJbykD77nrcA9fmEpgAs5Xg2SEQZgKL8ySBWAdCWT6IqD6z0L4RtHMDTLOVWM6gsvGwBavIxBwKwhqNtLvwjA1AWizmajQB05gOqKv0LIUqgH28yn4upJCl8YAEqM4FuAGzmWH6ReDIApTGb49kOQC/ejujjrfQvhD1kM4xv+ZKh6jt9YgGyGE9fAHYwmJkSTgagLKZxsikPPIhXyt0qovQvhC3UZxSLeYPDJIVvLEA6YzkegD2cxhSJJsrndPLMbtHHyzzAU/v+FaoDYAcdeZqdai0+qwuQxpPm5/ZymhqxiJTz3XKRDyr9K2QALCabYUx0+wOFnyzAvW6Z90vUkEU0XO82sPuV/hUyAFbSlNGsVhvxqQW4y/2Jf6opi2i5220+o5X+FTIAVpHOQN5gr9qHby3A7e5371BzFrFwj9uEblL6V8gAWEIrRrNMLcPXFuA69zsPqkGL2EjjEbcZXa/0r5ABCDg5DGOCnvt9bwGudf+rzvwTFbIAj7tN6R9K/woZgMDSnTGsU3sIgAW4yv0vz5S5i0tInggUeoKRADhcwUTt+xcBY0aFjsAOAk04h/NjPgVUeIfVDOBwnjJ57X9cRL5EkQGoGOm8wDnGAmxW5W8hAxAYanEiwziWTDWDgLCFaqa83RucpSN/y0MNv3zyOZ8sTgfSlP6FCAQ5DGIYp1JFUgSKGubr65yt9C8DEB/yOIcshkoIIQLQ5w3kTE6huqQILG9xjtK/DED82MsZjOdECSGEb6nEQE7lJOpIikDzMWexVzLIAMSTXIYzjiESQgjfUTDgfyI1JUXgmcAwc5ybkAGII7s5lVc5VUII4RtqchxDOZ6qksIK3lf6lwFI3CjA6fzP7AgQQniZ/RnCCfQlS1JYwxucQ65kkAFIFHmcTx7nSQghPEoGvRjMkHJPihdB4zXO1dy/DECiLcCF5HGhhBDCYzRjEMdwjGb6reRZRqrsjwxA4snnYnZwhYQQwhNUpz+DGMRBksJanuYypX8ZgOTgcBUOV0oIIVLae/VgEIM4TPP8lvMw1+BIBhmAZFqALUUOCRZCJINKHMIR9KU31SSG4P+4TiLIACSbm0nnBskgRJKoQjd6M5DeVJYYwnAnN0sEGYBUcCOreVAHKgmRUFrRi570pJuG+kUhHK7nPskgA5AqxrCJZ6SiEHGnOj1M4m8oMUQJ5HE5T0sGGYBU8gKbeY1KEkKIOFCbLnSlC11pR4bkEKWyh3N5QzLIAKSadzied7UcSYiYaeam/ZYSQ0TADk7lY8kgA+AFJnMUH1JXQggRxbN+B9rTgfYcTH3JIaJgE4OZKhlkALzC9xzFJ5qrFKIMqtKGtrThQDrQnhoSRMTEKo7hZ8kgA+AlfqIXE2kjIYRwaUQz2pi035bGEkRUmD8YxELJIAPgNZbQl0/oJCGEpdShMS1oRlOa05ymNNPiWBFn5nM0yyWDDIAXWcmRTKCXhBABJoPa1KIW9ahPfRrTgPo0ogH1yZY4IqFM5UQ2SAYZAK+yniMZy3AJIXxDJbq7/1yLNCCbqlShEjXIpBZZVCOHWtQyib+6JBMp4R3OYqdkiCeqYpeIJ6Qx/FUyCCFE3HiEa3TeX/yTlYg3Dh+yiaNlroQQIi596u2M0nl/GgHwD6fxIjmSQQghKsQeLuAVySAD4C8G8qb2OgshRAXYzFAmSwYZAP/RkQ9pJhmEECImVnI8sySDDIA/acJHdJYMQggRNfM4jqWSIXGkS4KEsoL+fC4ZhBAiSj6jt9J/YtEugESzi5epxyESQgghIuYZzmKHZJAB8Dv52hYohBARk8eNjNKu/8SjpJQsjuM17QkQQohy2MY5vCsZZACCRWcm0FwyCCFEqfzJicyQDMlBiwCTx8/04kfJIIQQpfA9PZT+ZQCCyQr68qpkEEKIEniTI1klGZKHFgEml728BfSXEEIIUYiHuZg9kkEGINh8wWKOI0tCCCEEADs5n//ouJ9ko0WAqaELb9NSMgghBMsZyg+SIfloDUBqmMUhOuBCCCH4mh5K/6lBUwCpYgevUIk+EkIIYTFPcQZbJENq0BRAajmHp6gsGYQQFrKbv/CcZJABsJduvK3yQEII61jBUL6TDKlEawBSzQx68KVkEEJYxTf0UPpPNVoDkHp28CqN6CYhhBCW8CRnsFkypBpNAXiFEfyXKpJBCBFwdnEVT0sGGQARThfG0VYyCCECzEJO42fJ4A20BsA7zKI74ySDECKwvMuhSv/eQWsAvMRuxrORo3RXhBCBYy83chW7JIR30BSA9+jD6zSRDEKIALGc0/lGMngLTQF4jykczKeSQQgRGL7gEKV/76HBZi+yg1dx6KfxGSGE73G4j/PZKiG8h1KMdzmOF6gvGYQQPmYNI/hEMsgAiGhpwAscKxmEED5lMueyQjJ4FU0BeJntvMJGBuguCSF8x17+zcU66U8jAKIiHMKrtJEMQggf8Qdnadmf19EuAO/zA915QzIIIXzDq3RW+pcBEPFgM6dzHtslhBDC8+zkGs7S0L8f0BSAfziIV+kiGYQQHmYuZzBHMvgDLS/zD+t4gdocItMmhPAkDg8zjJUSQiMAIjEM4jmaSgYhhMdYxUV8KBn8hNYA+I2JdOIlySCE8BTj6KD0rxEAkQyG8QR1JIMQwgNs5kpelAwyACJZNON5jpIMQogUM5EL+FMy+BFNAfiVZQziUm0NFEKkkF1cz7FK/xoBEKmgHWPpIRmEECngZ87lZ8ngX7QN0N+s43/A4bqPQoikksudnKMtfxoBEKmmM8/RXTIIIZL27H8h0yWDRgBE6lnNc+ygL5mSQgiR8Gf/+zmL5RJCIwDCO3TgOQ6VDEKIBDKLC5glGTQCILzFWv7Hdo0DCCESxE5u5ELN+2sEQHiVNjxDf8kghIgz33ARCyRDkFAdgKCxmAFcyjYJIYSI47P/9fRT+tcIgPDHOMATDJQMQog48CmXsUQyaARA+GUcYBDDWSMhhBAVYjXncYzSfzDRIsDgMo9nqMIhGuURQsSEw0ucyDQJEVSUHIJOH56gg2QQQkTJbC7jG8mgEQDhX5byNOvpS7akEEJEyE7u4lx+lxAaARD+pzWPcaxkEEJEwOdcxq+SIfhoEaAd/MZxnM1qCSGEKJOVnMEApX870BSAPczmadI4VPdcCFEie3mU03TIjz1oCsA2DmQMx0gGIUQRPucq5kgGm9AUgG38wrGcqMU9QogwlnMeA5T+bUPDwTbyK08Dh+rYICEEO7mb0zXwbyOaArCXNtzNMMkghNW8z9X8JhlkAIR9HMXDtJcMQljJQq7hQ8lgL5oCsJslPMMWDiVHUghhFRu4ifP5RULIAAh7yeMbngYO0YoAISwhl2cZyiTyJYXdaApAFHAAd2hFgBAW8D7XskgyCBkAEU5/7qe7ZBAisPzA3/laMogCVAdA7OMLDmG4agQIEUiWcymHKf2LfWgNgCjMPJ5iK4dSSVIIERi2czdn8B2OpBAyAKJ09jKV56lMF7UOIQLAHh7nVD5gr6QQhdEaAFEazbmJi2QChPAx+bzJDSyWEEIGQERLB+7gJLUSIXyIw9vcwjwJIWQARKwcyl0cJRmE8BVTuZ4pkkHIAIiK0oe76CsZhPAF33MjkySDkAEQ8WIg93OwZBDC08znVsZrtb+QARDxJZ1TuY12EkIITzKPe3mZPAkhZABEYkzACdxOFwkhhJK/kAEQ9pmAYdxCBwkhhCeYzb95U0f7CBkAkbyRgNF0kxBCpJS53KcnfyEDIJLfegbLBAiRMubwHyV/IQMgUteChnKjTIAQSeZH7uIdrfYXMgAi1fRhFIMlgxBJYSr38r6Sv5ABEF6hB6MYqgOmhUggebzJvcyQEEIGQHiN1lzNJVSWEELEnT28zl0skBBCBkB4lQb8hauoLSGEiBtbeZ77+FNCCBkA4XVqcjlX00hCCFFhVjCGJ9giIYQMgPAL2ZzE3zhMQggRMzN5grHskhBCBkD4j75cw0lkSAghoiKPtxmjA32FDIDwN00YyZXUkRBCRMQW/seD/C4hhAyACALVOItrdJKgEOWwmKd5kk0SQsgAiCCRzglczQC1OiFKwGEyY/hAh/oIGQARVPbnIi6inoQQwmUzr/MIcySEkAEQQacyw7lMOwSEAKbxBG+wU0IIGQBhD+24jAupJiGEpWzlVZ5gpoQQMgDCRqpzJpfTRUIIy5jPCzzFRgkhZACE3fRmJKdSVUIIC9jGeJ7iWwkhZACECI0FDOcCeksIEVgcpvIc49kqKYQMgBBFOYCzOJ8WEkIEjBW8yLMslBBCBkCI0klnACM4TccKi0Cwm4mM5W32SgohAyBEJNTlbM6nq4QQPmYGz/MKGySEkAEQIlo6ciZn0VJCCJ/xG6/yCvMkhJABEKIidGcEw2kkIYQP2MB4XmQqjqQQMgBCxIMMenEuZ1BDUgiPspP3eZGPyZUUQgZAiHiTwyDO5SSyJYXwELuZyDjeZLukEDIAQiSS2pzIqQwiR1KIFLOLT3iL93SAr5ABECJ5VOEohnEy1SWFSAE7mcQ43mGLpBAyAEKkghwGMYwTqSkpRJLYwWTG8RbbJIWQARAi1WTQi2GcTkNJIRLIBj5gHJ+yW1IIGQAhvGUDenMCg2kvKUScmcv7fMA35EkKIQMghHdpydEMYRCVJIWoIHv5jgm8wy+SQsgACOEXqnAUgzmB/SSFiIG1fMwEPtEiPyEDIIQ/Sac7gzmGHmRIDBEBeXzPJ3zAdNXyEzIAQgSBahzGQIZofYAold/4jM/4jI2SQsgACBE8WjOQgRxFHUkhDNuYxvu8xxJJIWQAhAg6GRzCQI6mp4oKW8wevmUiE5mutf1CBkAI26hCN3ozkN5UlhjWsIOZTOEzprJTYggZACHsJpODGUgf+lBLYgSW7XzLVKbwtQr5CCEDIERRI9CNfvSjD7UlRmBYz1S+5CtmaqhfCBkAIcqjCb3pQ3d6qJyQT8njF6YzhanMJ19yCCEDIER0VKEHPTmMnioo5BP+ZBrT+I7p7JAYQsgACFFxmnIYh9GNrlon4EE2MpMZTOM7lksMIWQAhEgMrehKV7rQVaMCKWY5M5nFTGbyu8QQQgZAiORRi450pzvdOYh0yZEkVjKd6UznB1ZJDCFkAIRILVVpR3va054OtJQZiDP5LGEu85jHPOZrbl8IGQAhvEkVDqI9HWhHB1rpEKIYyWMJc5jPXOaxQCV7hJABEMJf5LA/bWhr/tdcdqDMlP8Hi1nMIhaziEXskiRCyAAIEQyyaWnMQFta05Icy/XYyR8m2S9mEb+TqyYihAyAEDZQn2Y0pQXNaEpzmtOYzABf7V5WsJSlLGcZS1nGctaqCQghAyCEgAwa0YKmNKI+jWlg/t+PBxXtYA2rWMsaVrKWVSznD1apFK8QMgBCiMipRiMaUp9GNKA2tQpFatlkYqP5utok/VVs020TQgZACJE4aruWoDJVqUIlapJJTbLNv9Uggxru0sNqZJl/quKecbDb3VaX66btPLaQxxZ2s4Pt7GEzue6/7XQT/kbJL4R/+X/jvZvuWCk6twAAACV0RVh0ZGF0ZTpjcmVhdGUAMjAyNC0wNi0xNlQwMTo0ODo0MiswMDowMHSbqWYAAAAldEVYdGRhdGU6bW9kaWZ5ADIwMjQtMDYtMTZUMDE6NDg6NDIrMDA6MDAFxhHaAAAAAElFTkSuQmCC;fontColor=default;" parent="1" vertex="1">
          <mxGeometry x="160" y="480" width="440" height="440" as="geometry" />
        </mxCell>
      </root>
    </mxGraphModel>
  </diagram>
</mxfile>
